<svg id="Layer_1" data-name="Layer 1" xmlns="http://www.w3.org/2000/svg" xmlns:xlink="http://www.w3.org/1999/xlink" viewBox="0 0 482.12 535.1"><defs><style>.cls-1{fill:url(#linear-gradient);}.cls-2{fill:url(#linear-gradient-2);}.cls-3{fill:url(#linear-gradient-3);}.cls-4{fill:url(#linear-gradient-4);}.cls-5{fill:url(#linear-gradient-5);}.cls-6{fill:url(#linear-gradient-6);}.cls-7{fill:url(#linear-gradient-7);}.cls-8{fill:url(#linear-gradient-8);}.cls-9{fill:url(#linear-gradient-9);}.cls-10{fill:url(#linear-gradient-10);}.cls-11{fill:url(#linear-gradient-11);}.cls-12{fill:url(#linear-gradient-12);}.cls-13{fill:url(#linear-gradient-13);}</style><linearGradient id="linear-gradient" x1="222.05" y1="301.35" x2="222.05" y2="312.55" gradientTransform="matrix(1, 0, 0, -1, 0, 538)" gradientUnits="userSpaceOnUse"><stop offset="0" stop-color="#dce3db"/><stop offset="1" stop-color="#d1c7c3"/></linearGradient><linearGradient id="linear-gradient-2" x1="-20.78" y1="454.15" x2="289.95" y2="354.78" gradientTransform="matrix(1, 0, 0, -1, 0, 538)" gradientUnits="userSpaceOnUse"><stop offset="0" stop-color="#80a28d"/><stop offset="0.29" stop-color="#6e9781"/><stop offset="0.72" stop-color="#598b74"/><stop offset="1" stop-color="#528870"/></linearGradient><linearGradient id="linear-gradient-3" x1="330.05" y1="476.67" x2="266.62" y2="191.12" xlink:href="#linear-gradient"/><linearGradient id="linear-gradient-4" x1="259.91" y1="491.86" x2="301.75" y2="205.83" gradientTransform="matrix(1, 0, 0, -1, 0, 538)" gradientUnits="userSpaceOnUse"><stop offset="0" stop-color="#528870"/><stop offset="1" stop-color="#80a28d"/></linearGradient><linearGradient id="linear-gradient-5" x1="184.7" y1="270.45" x2="482.12" y2="270.45" gradientTransform="matrix(1, 0, 0, -1, 0, 538)" gradientUnits="userSpaceOnUse"><stop offset="0" stop-color="#80a28d"/><stop offset="1" stop-color="#528870"/></linearGradient><linearGradient id="linear-gradient-6" x1="348.48" y1="344.45" x2="384.63" y2="344.45" xlink:href="#linear-gradient-5"/><linearGradient id="linear-gradient-7" x1="289.79" y1="329.35" x2="373.71" y2="329.35" gradientTransform="matrix(1, 0, 0, -1, 0, 538)" gradientUnits="userSpaceOnUse"><stop offset="0.61" stop-color="#528870"/><stop offset="1" stop-color="#80a28d"/></linearGradient><linearGradient id="linear-gradient-8" x1="185.12" y1="293.28" x2="229.41" y2="293.28" gradientTransform="matrix(1, 0, 0, -1, 0, 538)" gradientUnits="userSpaceOnUse"><stop offset="0" stop-color="#80a28d"/><stop offset="0.37" stop-color="#68937d"/><stop offset="0.72" stop-color="#588b73"/><stop offset="1" stop-color="#528870"/></linearGradient><linearGradient id="linear-gradient-9" x1="204.9" y1="320.08" x2="229.5" y2="320.08" xlink:href="#linear-gradient-8"/><linearGradient id="linear-gradient-10" x1="304.05" y1="387.52" x2="301.64" y2="470.25" xlink:href="#linear-gradient-5"/><linearGradient id="linear-gradient-11" x1="112.33" y1="429.49" x2="156.03" y2="377.76" xlink:href="#linear-gradient-4"/><linearGradient id="linear-gradient-12" x1="221.64" y1="381.62" x2="262.04" y2="381.62" xlink:href="#linear-gradient-4"/><linearGradient id="linear-gradient-13" x1="260.49" y1="195.42" x2="324.29" y2="195.42" xlink:href="#linear-gradient-4"/></defs><path class="cls-1" d="M226.79,233.9c-.9.7-2.1,1.6-3.4,2.8l-8.7-7,12.4-4.2C230.67,227,229.74,231.79,226.79,233.9Z"/><path class="cls-2" d="M263.89,139.2c-1.5-.7-3.1-1.1-4.4-.3l-.5.1a3.62,3.62,0,0,1-4.2-4.6l.7-2.1a6.06,6.06,0,0,0-1.6-6l-10.6-9.7-4.4-1.3a3.28,3.28,0,0,1-2.2-2.6,5.25,5.25,0,0,0-2.5-3.6l-19.6-11.6a6.14,6.14,0,0,0-8.1,1.7l-4.6,6.3a34.83,34.83,0,0,0-24.6-24.4c-21.2-5.4-41.8-6.7-52.8-7a6.63,6.63,0,0,0-6.7,7.8l1.5,8.4-.1-.1a33.88,33.88,0,0,0-30.3-16.7l-3.4.1a6.28,6.28,0,0,0-5.7,8.5,3.12,3.12,0,0,1-4.7,3.7c-1.4-1-2.9-2-4.4-3a28.68,28.68,0,0,0-20.5-4.6c-12.7,2-32.3,5.3-46.3,7.6a4.7,4.7,0,0,0-.9,9c36,13.87,34.53,13,37,15.1l127.1,98.6c6.77,5.35,12.92,5,21.3,5.5,4.7-7.7,19.1-26.3,47.4-23.5-.83-7.75-.75-8-1.5-10.3a6,6,0,0,0-4.1-3.9,7.13,7.13,0,0,0-6.1,1.5l-4.8,4.4a3,3,0,0,1-4.9-2.6c1.71-11.17,1.94-11.18,1.3-12.9a4.46,4.46,0,0,0-5-2.7l-4.1.7a4.48,4.48,0,0,0-3.3,2.8l-3.7,11.2a3.45,3.45,0,0,1-6.1.8c-2.28-3.24-3.89-6.36-8.5-6.9-5.69-.69-9.27-.64-13.4-3.7,19.59,1.37,16.5.11,24.1,6.9a.53.53,0,0,0,.9-.2l3.2-7.2a11.83,11.83,0,0,1,10-7l1.5-.1a7.09,7.09,0,0,1,7.5,8.2l-1.1,6.9a1.31,1.31,0,0,0,2.1,1.2l.7-.5a15.55,15.55,0,0,1,12.1-3.1,4.59,4.59,0,0,1,3.6,3.1c1.4,4.21,1.46,8.44,1.8,13.5,7.7,1,16.4,3.6,26.2,8.3l1.9-43.3Zm-82.8,61.5-1.7,1.5-69.2-70.3a1.49,1.49,0,0,1,1.3-2.5,5.91,5.91,0,0,1,3.2,1.7Zm-10-59.3c-2.2-3.4-8.8-16.9-11.8-23a1.76,1.76,0,0,1,1.9-2.3,5.23,5.23,0,0,1,3.8,3.4l7.8,20.6Zm6.2-5.5.1-31.4c0-2.9,2-5.4,4.1-5.1l.6,37.3C180.8,140.12,177.29,139.64,177.29,135.9Z"/><path class="cls-3" d="M363.19,147.2c-21.32,40.26-15,31.72-47.7,75.3-.28.28-4.91,6.31-5.5,7.3,0,.1-.1.1-.1.2a.31.31,0,0,0-.1.2l1,1.9c35.54-44.49,35.36-43.45,38.2-49.7l15.7-34.3Zm-29.7,85.7c0-.2-.1-.3-.1-.5s-.1-.3-.3-.4-.1-.2-.2-.2a1.67,1.67,0,0,0-2.2,0c-1.5,1.5-1.42,1.35-1.5,1.5-2.16,1.8-13.55,13.64-14,14-.28.42-.83.7-1.3,1.4s-1,1.1-1.4,1.5l1.8,1.3c.19-.15,17.49-14.25,17.6-14.3a6.23,6.23,0,0,0,1.4-2.3,4.14,4.14,0,0,0,.2-1.6A.3.3,0,0,0,333.49,232.9Zm6.4-131.8c-1.44-4-6.57-4.67-9.3-.8-5.22,7.43-7.76,14-10,21.6L324,71.7c.16-2.18-.92-3.35-1.8-4.5-1.8-2.1-5.1-.5-5.2,2.6-3,74.85-2,55.21-3.9,80.2-1.8,22.6-4.5,58.5-4.3,61.8l1.7.4,9.2-79.7c1.45-1,5.16-16.43,10.9-26.4l2.1-3.5c.86-1.47,3-2,4,.1a22,22,0,0,1-.4,15.9c-4.4,11.1-11.6,29.6-10.8,29.8l1.1.2,14.1-30.9C344,111,341.5,105.61,339.89,101.1ZM297.09,273a49.78,49.78,0,0,1-4-18.1C287.25,67.59,287.67,71,286.69,67.6,280.92,47.12,281.14,48,281,47.1l-1.7-.2-.1,1.5c5.69,20.8,5.15,18.5,5.5,20.9,3.73,199.6,2.87,194.16,5.1,199.6l28.7,63.7,5.1.8Z"/><path class="cls-4" d="M389.09,245c-4.6-5.2-11.8-7.2-19.2-5.2l-29.3,7.7c3.4-3.4,3-2.72,21.2-7.9.2-.4.5-.8.7-1.2a6.71,6.71,0,0,0-4.1-9.5l-10.7-3.2a2.16,2.16,0,0,1,.3-4.2c23.5-3.34,23.1-2.89,24.6-4.6,2.8-3.2.57-10.13-5.5-11.2-3.69-.65-6.15-1.24-11.2-.7,20.59-10.77,23.34-11.36,27.1-17.1a10.48,10.48,0,0,0,1.5-7.7c-2.85,3.89-5.35,7.64-11.4,11-8.4,4.6-23.5,13.2-24.5,14.9h.1l-10.4,1.6a1,1,0,0,1-.8-1.7l1.4-1.2a18.7,18.7,0,0,0,6.6-16c2.81-4,2.21-3.26,19.3-40.6l-1.5-1.1C343,185.34,345.39,181.64,338,192c.62-.94,3.13-4.05,6.1-9l-1.7-4a5.49,5.49,0,0,0-6.9-3.1l-2.4,1a8.58,8.58,0,0,0-.8-10.2l-.4-.5a3.67,3.67,0,0,0-5.3-.3,1.25,1.25,0,0,1-2.1-1.1v-.1a8.21,8.21,0,0,0-2.2-7l-4.9-4.9c2.28-19.54,2.3-19.58,2.3-20,.61-.4.32,0,6.1-16a69,69,0,0,1,6.9-13.9c.86-1.47,3-2,4,.1a22,22,0,0,1-.4,15.9c-4.4,11.1-11.6,29.6-10.8,29.8l1.1.2,14.1-30.9c3.22-7.11.9-12.14-.8-16.9-1.44-4-6.57-4.67-9.3-.8-5.22,7.43-7.76,14-10,21.6L324,71.7c.16-2.18-.92-3.35-1.8-4.5-1.8-2.1-5.1-.5-5.2,2.6-3,74.85-2,55.21-3.9,80.2a3.76,3.76,0,0,0-3.1,2.6l-7.7,27.8a.9.9,0,0,1-1.7,0c-2.9-11.8-8.4-24.1-10.8-29.3-2.64-83.78-2.23-80.38-3.2-83.8-5.77-20.48-5.55-19.56-5.7-20.5l-1.7-.2-.1,1.5c5.68,20.76,5.15,18.5,5.5,20.9,3.73,199.6,2.87,194.16,5.1,199.6l28.7,63.7,5.1.8L297.09,273c-4.6-10.72-4-18.07-4.5-35.2l5.6,15,11.1,14,2.2-.1.4-1.7c57.61-.46,56.4.34,64.5-2.9a38.56,38.56,0,0,0,11.2-6.9C390.5,252.68,391.62,248.1,389.09,245Zm-20.5,59.9a13.72,13.72,0,0,1,1.6,1.8l.3-1.8Zm-47.2,63.8c3.8-4.8.7-9.9.7-9.9-3.2,13.3-11.6,10.4-16.4,7.4-16.7-10.9-33.3-44.6-33.3-44.6.9,7.4,7.4,19.4,7.4,19.4-9.9-9.5-19.4-30.2-19.4-30.2,6,30.5,28.3,51.2,36.1,58a21.5,21.5,0,0,0,2.8,2.5c6.1,4.2,13.9,3.4,13.9,3.4,8.4,0,10.9-7.6,11-8.1A7.49,7.49,0,0,1,321.39,368.7ZM307.29,84.1l-12-13.2a1.28,1.28,0,0,0-2.1.4,5.73,5.73,0,0,0,1.4,5.9l6.3,6.2a18.85,18.85,0,0,1,5.6,15.4l-5.7,56.5a17.72,17.72,0,0,0,3.7-8.8L311,96.1A14.44,14.44,0,0,0,307.29,84.1ZM226,225.1c-4.68-1.3-5.81,1.59-12.5.1-3.94-.86-7.53,1.16-8.7,3.5-1.1,5.5-13.9,15.5-13.9,15.5s-.3.1-.4.2a.52.52,0,0,1,.4-.2,1.66,1.66,0,0,1,.5-.4c.1-.1,12.6-9.63,13.3-15.1l-1.4,8.4h.1a3.71,3.71,0,0,1,3.1-.4.76.76,0,0,1,.4.2c.1.1.2.1.4.2s.2.1.3.2,0,0,.4.4c.1,0,.1.1.2.2v.1c2.42,2.43-.39,2.91-2.1,25.9v.4c.9-11.7,11-22,17.3-27.4,3.25-2.79,5.64-4,6-7.2C229.59,227.29,228.5,225.73,226,225.1Zm2.8-14.7c-4,2.4-6.7,1.6-6.7,1.6-15.1-3.5-17.2,13.4-17.2,13.4a9.9,9.9,0,0,1,2.9-2.5,6.09,6.09,0,0,0,2.6-3.1c2-5.25,7.38-3.4,9-3.4a10.1,10.1,0,0,0,9.6-4.8C230.19,209.8,228.79,210.4,228.79,210.4Zm-40.7,36.3a1.38,1.38,0,0,0,.3-.4l.1-.1A2.18,2.18,0,0,0,188.09,246.7Zm-3,5.5h0a.31.31,0,0,0,.1-.2v-.2C185.19,252,185.19,252.1,185.09,252.2Z"/><path class="cls-5" d="M481.09,530a366.57,366.57,0,0,1-32.3-29.4c-.3-.8-20.8-23.7-30.3-35.2-7.5-9.2-13.8-18.4-20.9-27.5a.35.35,0,0,1,.1-.2c-10.8-16.2-21.7-34.9-31.8-53.6l-.1-.1c-11.73-32-9.4-24.12-11.5-34.1,10.62-4.65,21.61-19.63,26.9-29.7l10.2-17.2a16.74,16.74,0,0,0-1.1-18.2l-2.9-3.9c-1.4-1.9.3-4.6,2.3-3.7,3.8,1.7,7.9-.6,8.8-4.9l7.7-35.3a54.71,54.71,0,0,0-.4-24.8l-6.6-26.3a6.41,6.41,0,0,0-3.7-4.5,3.77,3.77,0,0,1-1.1-5.9c2.45-3.27,2-3.36.4-12.1a4.87,4.87,0,0,0-4.5-4.2h-7.8a1,1,0,0,1-.5-1.7c5.92-4.13,8.36-12.71,5.5-20.6l-12-32.1c-.9-2.3-3.2-3.6-5.3-2.8l-6.8,2.6c-.9.3-1.6-.9-1-1.7l5-6.2a9.08,9.08,0,0,0-.6-11.6l-39.1-41.9a3.92,3.92,0,0,0-5.3-.6l-5.5,4.4c-.9.7-2.1-.3-1.9-1.5l.5-2.2c1.4-6.2-1.6-12.9-7-15.5l-7-3.4c-7.7-3.8-16.4-.4-20,7.8L280,35.5c-.7,1.6-2.8,1.2-3.2-.6l-1.7-9.2a31.9,31.9,0,0,0-13.3-20.9l-6-4c-3.7-2.4-8.1.9-7.4,5.6l21.7,136.9c1.82,11.74,1.05,14.85-1.9,66.4,0,0-5.6,39.8-.4,54.9-2.1-5.8-8.9-27.6-3.9-57.9-4-2.6-7-4.3-7-4.3-23.2-12.1-45.8-1.4-45.8-1.4-12,4.14-18.5,14.46-18.5,26,0,2.2-.6,8.5-5.8,15.2a11.82,11.82,0,0,0-1.6,10,1,1,0,0,0,.1-.4c0-.1.1-.2.1-.4s.1-.4.3-.6a3,3,0,0,1,.4-.8v-.1a17.38,17.38,0,0,1,2.4-3.8,10.81,10.81,0,0,1,1.9-1.7h.1a.52.52,0,0,1,.4-.2s12.8-10.1,13.9-15.5c1.18-2.36,4.75-4.36,8.7-3.5,7,1.56,7.89-1.45,12.5-.1,2.09.53,3.62,2,3.4,4.4-.4,3.56-2.8,4.25-6,7.2-7.81,6.7-17.3,17.68-17.3,28.2-1.38,24.26,3.55,51.8,17.2,71.9,7.58,11.38,17.68,27.37,32.3,45.3-1.06,4.54-2.77,15.1-.8,19.3,0,.1,0,2.6-4.1,3.3a13.5,13.5,0,0,1-4-.1c-2.9-.6-9.7-1.5-14.1,1.5a12.27,12.27,0,0,1-4,2.9,3.38,3.38,0,0,0-.7,4.3s-1.4,1,.2,2.7a2.47,2.47,0,0,0,.1,1.5c.75,2.39,3.83,3.86,6.7,1.7,0,0-5.1.4-3.5-3.1,0,0,.2-2.5,4.2-2.2a18.41,18.41,0,0,0,6.5-.6,3.25,3.25,0,0,1-.8,3.6s-1.5,1.6-2.1,2.2a5.83,5.83,0,0,0,5.3-4.7c.3-1.2.9-2.5,2.3-2.7a18.51,18.51,0,0,0,12.3-8s1.5.7,3.3-1.1c0,0,5.1-6.5,7.5-4.1l2.2,1.9c.1,3.6.5,7.4,1.8,9.6.21,1.78-2.32,4.4-7.8,4-2.9-.3-9.8-.4-13.8,3a12.66,12.66,0,0,1-3.7,3.3,3.26,3.26,0,0,0-.2,4.3s-1.3,1.1.5,2.7a1.94,1.94,0,0,0,.2,1.4,4.05,4.05,0,0,0,6,1.6c.3-.2.5-.4.8-.6,0,0-5,1-3.7-2.7,0-.1,0-2.5,3.9-2.6a17,17,0,0,0,6.4-1.3,3.37,3.37,0,0,1-.4,3.7l-1.9,2.4.1-.1a1,1,0,0,0,.4-.1,6,6,0,0,0,4.4-5.2,3,3,0,0,1,2-2.9,18.63,18.63,0,0,0,11.4-9.2s1.6.5,3.2-1.5c0,0,.4-.6,1-1.4a105.06,105.06,0,0,0,12.1,6.7l36.3,11.7a46.47,46.47,0,0,1,30.7,32.5s6.3,28.7,10.5,36.3a23.19,23.19,0,0,0,14,11.2c29.4,8.6,38,.4,52.5,13.3,9.1,8.1,21.3,14.2,34.3,14.5l6,.1A2.9,2.9,0,0,0,481.09,530ZM218.19,220.4a3.22,3.22,0,0,1-2,2.4c-1.41.71-2.6-.2-3.8-.2-1.49.43-.2-1.55-.2-2.9a2.92,2.92,0,0,1,1.5-1.8c.1,0,.1,0,.2-.1s.1-.1.2-.1h.1c1.61-.58,3.14-.28,4.1-.6.1,0,.3,0,.3.2C218.49,218.4,218.19,220.4,218.19,220.4Zm-.6-4.1s-5.2-1.4-7.1,3.6a6.09,6.09,0,0,1-2.6,3.1,9.9,9.9,0,0,0-2.9,2.5s2.1-16.8,17.2-13.4c0,0,2.7.8,6.7-1.6,0,0,1.4-.6.3,1.2C227,215.15,223,217.2,217.59,216.3Zm152.6,90.4c-.5-.6-1-1.2-1.6-1.8h1.9Zm-77-235.3a1.23,1.23,0,0,1,2.1-.4l12,13.2a15,15,0,0,1,3.8,12.1l-6.5,50.4a18.11,18.11,0,0,1-3.7,8.8l5.7-56.5A18.85,18.85,0,0,0,301,83.6l-6.3-6.2A6.21,6.21,0,0,1,293.19,71.4Zm20.1,303.1s-7.8.8-13.9-3.4a21.85,21.85,0,0,1-2.8-2.5c-7.8-6.8-30.1-27.5-36.1-58,0,0,9.5,20.7,19.4,30.2,0,0-6.6-12-7.4-19.4,0,0,16.6,33.7,33.3,44.6,4.8,3,13.2,5.9,16.4-7.4,0,0,3.2,5.1-.7,9.9a6.79,6.79,0,0,0,2.9-2.2C324.19,366.9,321.59,374.5,313.29,374.5Zm-1.4-109.4-.4,1.7-2.2.1-11.2-14-5.6-15c.6,17.14.1,24.8,4.6,35.1l26.5,60.2-5.1-.8c-30.81-68.37-30.2-65.42-30.2-70.8-3.64-194.4-3.46-193.07-3.9-194.4l-5.2-19,.1-1.5,1.7.2c.15.94-.07,0,5.7,20.5.92,3.24.56,0,3.2,83.8,2.4,5.2,7.9,17.5,10.8,29.3a.89.89,0,0,0,1.7,0l7.7-27.8a3.5,3.5,0,0,1,3.1-2.6c1.89-25.11.86-4.92,3.9-80.2.1-3,3.4-4.7,5.2-2.6,1,1.31,2,2.25,1.8,4.5l-3.4,50.2c2.3-7.76,4.87-14.29,10-21.6,2.71-3.84,7.84-3.29,9.3.8,1.62,4.52,4.07,9.67.8,16.9l-14.2,30.8-1.1-.2c-.7-.1,6.5-18.7,10.8-29.8a22,22,0,0,0,.4-15.9c-.76-1.88-3-1.85-4-.1a68.58,68.58,0,0,0-6.9,13.9c-5.83,16.1-5.35,15.25-6.1,16,0,.1,0,0-2.3,20l4.9,4.9a8.11,8.11,0,0,1,2.2,7v.1a1.25,1.25,0,0,0,2.1,1.1,3.66,3.66,0,0,1,5.3.3l.4.5a8.58,8.58,0,0,1,.8,10.2l2.3-.8a5.49,5.49,0,0,1,6.9,3.1l1.7,4c-2.6,4.33-4.59,6.88-6.1,9,5.49-6.59,10.81-17.54,25.3-44.9l1.5,1.1c-16.62,36.31-16.67,37-19.3,40.6a19,19,0,0,1-6.6,16l-1.4,1.2a1,1,0,0,0,.8,1.7l10.4-1.6h-.1c.9-1.8,16.1-10.3,24.5-14.9,6-3.36,8.71-7.33,11.4-11a10.63,10.63,0,0,1-1.5,7.7,21,21,0,0,1-7.6,6.9l-19.5,10.2c4.55-.65,7.82.1,11.2.7,5.9,1,8.42,7.86,5.5,11.2-1.53,1.75-1.31,1.29-24.6,4.6a2.16,2.16,0,0,0-.3,4.2l10.7,3.2a6.83,6.83,0,0,1,3.4,10.7c-17.29,4.93-17.73,4.43-21.2,7.9l29.3-7.7c7.3-1.9,14.6,0,19.2,5.2,2.55,2.82,1.68,7.53-1.4,10.2-6.34,5.59-15.06,9.4-23.5,9.4C344.44,264.8,356,264.74,311.89,265.1Z"/><path class="cls-6" d="M375.39,194.9l-22.8,11.9c-3.7-.56-3.85-.6-4-.6.9-1.8,16.1-10.3,24.5-14.9,6-3.36,8.71-7.33,11.4-11v.2C385.65,186.58,380.79,192,375.39,194.9Z"/><path class="cls-7" d="M367,205.8c-8.93-1.59-8.15-1.21-28.8,2a1,1,0,0,1-.8-1.7l1.4-1.2a18.7,18.7,0,0,0,6.6-16l-34.5,43.4-1-1.9c.15-.15.3-.27.3-.4s4.43-6.13,5-6.7c.08-.17,24.53-32.55,29-40l-1.7-4a5.49,5.49,0,0,0-6.9-3.1l-2.5.7a8.58,8.58,0,0,0-.8-10.2l-.4-.5a3.67,3.67,0,0,0-5.3-.3,1.25,1.25,0,0,1-2.1-1.1v-.1a8.21,8.21,0,0,0-2.2-7l-4.9-4.9-6.9,59.8-1.7-.4c-.2-3.3,2.5-39.2,4.3-61.8A3.76,3.76,0,0,0,310,153l-7.7,27.8a.9.9,0,0,1-1.7,0c-2.9-11.8-8.4-24.1-10.8-29.3l2.7,86.4,5.6,15,11.1,14,2.2-.1.4-1.7c40.26-.32,35.45-.21,40.3-.5a.56.56,0,0,0,.3-1l-12.3-7.6a2.14,2.14,0,0,1,.7-3.9c6.34-1.42,13.18-2.18,19.2-9.7l-19.3,5.1c3.4-3.4,3-2.72,21.2-7.9.2-.4.5-.8.7-1.2a6.71,6.71,0,0,0-4.1-9.5l-10.7-3.2a2.16,2.16,0,0,1,.3-4.2l21.8-3.1a4.69,4.69,0,0,0,4-4.4A8.36,8.36,0,0,0,367,205.8Zm-33.8,29.6c-.84,1.94-1.15,1.76-18.8,16.1l-1.8-1.3c1.45-1.94,17.08-17.28,18.2-18.4a1.78,1.78,0,0,1,2.4.2c.1.1.2.3.3.4a5.13,5.13,0,0,1-.1,2.6A.52.52,0,0,0,333.19,235.4Z"/><path class="cls-8" d="M226.79,233.9c-9.3,7.23-20.7,19.33-20.7,31,1.12-24.25,4.37-23.79,2.5-26.6a.35.35,0,0,0-.1-.2c-.1-.1-.1-.2-.2-.2v-.1c-.79-.78-.6-.64-1.3-1a.76.76,0,0,1-.4-.2,4.23,4.23,0,0,0-3.1.4h-.1c-5.11,5.11-14.28,9.11-18.1,15a1,1,0,0,0,.1-.4c0-.1.1-.2.1-.4s.1-.4.3-.6a3,3,0,0,1,.4-.8v-.1a17.38,17.38,0,0,1,2.4-3.8,10.81,10.81,0,0,1,1.9-1.7h.1a.52.52,0,0,1,.4-.2s12.8-10.1,13.9-15.5c1.18-2.36,4.75-4.36,8.7-3.5,7,1.56,7.89-1.45,12.5-.1C230.23,225.94,230.48,231.26,226.79,233.9Z"/><path class="cls-9" d="M229.09,211.7c-2,3.42-6,5.53-11.5,4.6,0,0-5.2-1.4-7.1,3.6a6.09,6.09,0,0,1-2.6,3.1,9.9,9.9,0,0,0-2.9,2.5s2.1-16.8,17.2-13.4c0,0,2.7.8,6.7-1.6C228.79,210.4,230.19,209.8,229.09,211.7Z"/><path class="cls-10" d="M311.09,96.2l-6.5,50.4a18.11,18.11,0,0,1-3.7,8.8l5.7-56.5A18.85,18.85,0,0,0,301,83.5l-6.3-6.2a5.76,5.76,0,0,1-1.4-5.9,1.23,1.23,0,0,1,2.1-.4l12,13.2A14.91,14.91,0,0,1,311.09,96.2Z"/><path class="cls-11" d="M151,158.3l-43.7-43.8a2.37,2.37,0,0,1,2-4l8.3,1.4a25.69,25.69,0,0,1,16.3,10.3l21.7,31.3C157.8,156.74,153.9,160.85,151,158.3Z"/><path class="cls-12" d="M221.69,136.1l10,6.1a7.2,7.2,0,0,1,3.3,7.1l-.5,3a9.57,9.57,0,0,0,7.8,10.9c9,1.58,9.35,3.9,14.6,12.3a2.84,2.84,0,0,0,5.2-1.1l-1.8-2.9a28.31,28.31,0,0,0-19.2-12.6c-6.41-1.13.4-11.67-9.1-18.3C227.65,137.48,225.58,135.32,221.69,136.1Z"/><path class="cls-13" d="M324.29,366.4c-.1.5-2.6,8.1-11,8.1,0,0-7.8.8-13.9-3.4a21.85,21.85,0,0,1-2.8-2.5c-7.8-6.8-30.1-27.5-36.1-58,0,0,9.5,20.7,19.4,30.2,0,0-6.6-12-7.4-19.4,0,0,16.6,33.7,33.3,44.6,4.8,3,13.2,5.9,16.4-7.4,0,0,3.2,5.1-.7,9.9A5.22,5.22,0,0,0,324.29,366.4Z"/></svg>