<svg width="253" height="341" viewBox="0 0 253 341" fill="none" xmlns="http://www.w3.org/2000/svg">
<g clip-path="url(#clip0_16_2227)">
<path d="M204.234 127.128C209.446 112.87 221.269 92.7 251.397 77.2224L252.452 80.034C207.523 101.012 203.285 142.765 203.254 143.186L200.263 142.912C200.968 137.514 202.301 132.217 204.234 127.128Z" fill="url(#paint0_linear_16_2227)"/>
<path d="M297.203 81.7002C293.912 81.8653 282.776 81.3629 277.241 81.6743C271.707 81.9857 261.722 82.6337 258.159 81.6912C254.597 80.7487 249.762 79.7099 249.762 79.7099C254.435 82.1154 259.268 84.1955 264.228 85.9353C270.564 87.9854 275.383 87.9365 283.108 86.4103C287.98 85.4171 292.713 83.8354 297.203 81.7002Z" fill="url(#paint1_linear_16_2227)"/>
<path d="M236.86 61.988C235.848 65.1183 231.482 75.3619 229.78 80.6234C228.078 85.8849 225.203 95.486 223.063 98.4934C220.923 101.501 218.247 105.648 218.247 105.648C222.159 102.129 225.827 98.3468 229.224 94.3278C233.356 89.0955 235.027 84.5806 236.327 76.8244C237.105 71.9187 237.284 66.9368 236.86 61.988Z" fill="url(#paint2_linear_16_2227)"/>
<path d="M261.204 79.7858C253.013 83.0428 241.04 83.6357 241.04 83.6357L242.8 81.767C247.336 79.0365 252.04 76.5951 256.884 74.4575C263.576 71.6407 267.066 68.2924 273.962 65.2683C280.858 62.2442 285.532 64.3659 285.532 64.3659C285.532 64.3659 269.397 76.5194 261.204 79.7858Z" fill="url(#paint3_linear_16_2227)"/>
<path d="M36.5705 218.745C36.6986 218.365 36.9522 218.039 37.2897 217.822C37.4539 217.702 37.6427 217.62 37.8425 217.582C38.0422 217.544 38.2479 217.552 38.4445 217.603C38.6412 217.655 38.8239 217.749 38.9794 217.88C39.1349 218.011 39.2594 218.175 39.3437 218.36C60.3829 262.321 120.274 294.279 155.421 300.448C173.231 303.582 192.578 300.635 209.903 292.177C227.227 283.72 241.234 270.216 248.978 254.37C265.028 221.526 259.123 187.117 259.057 186.77C258.98 186.334 259.058 185.885 259.279 185.501C259.499 185.117 259.847 184.822 260.262 184.669C260.457 184.607 260.663 184.589 260.866 184.616C261.069 184.643 261.263 184.715 261.435 184.826C261.607 184.936 261.753 185.084 261.861 185.257C261.969 185.431 262.038 185.626 262.062 185.829C262.319 187.279 268.3 221.775 251.634 255.776C234.945 289.948 193.261 310.609 154.673 303.832C118.968 297.535 58.0633 265.007 36.6086 220.187C36.5049 219.962 36.4481 219.718 36.4415 219.47C36.435 219.222 36.4789 218.975 36.5705 218.745Z" fill="url(#paint4_linear_16_2227)"/>
<path d="M108.529 178.87C106.211 198.089 106.482 223.076 118.041 242.834C130.134 263.51 165.793 300.325 193.763 300.188L193.78 303.189C177.163 303.288 159.767 291.564 148.102 281.715C135.157 270.79 122.34 256.122 115.459 244.352C103.662 224.192 103.341 199.063 105.153 181.54C107.105 162.612 110.583 161.803 108.529 178.87Z" fill="url(#paint5_linear_16_2227)"/>
<path d="M200.269 142.861L203.108 143.212C203.058 143.595 194.942 181.025 216.15 209.001C226.117 222.148 251.458 228.707 259.823 217.214L262.51 218.199C257.281 230.171 227.527 228.868 213.874 210.872C191.901 181.912 200.221 143.235 200.269 142.861Z" fill="url(#paint6_linear_16_2227)"/>
<path d="M101.193 274.8C99.9942 275.81 97.8445 276.249 95.4172 273.551C92.99 270.853 90.3755 268.083 93.1627 264.277C95.9499 260.47 100.363 263.138 102.114 266.595C103.865 270.051 104.392 272.093 101.193 274.8Z" fill="url(#paint7_linear_16_2227)"/>
<path d="M129.723 292.848C129.723 292.848 126.764 286.92 122.674 280.299C118.583 273.678 102.696 261.223 101.946 261.947C100.648 263.167 113.924 281.777 116.809 284.067C119.694 286.356 126.951 291.962 126.951 291.962" fill="url(#paint8_linear_16_2227)"/>
<path d="M117.396 290.762C117.396 290.762 104.501 295.146 94.4835 293.134C84.4662 291.123 80.1159 287.677 76.9286 285.931C74.8852 284.807 73.8431 282.473 76.2086 282.828C79.8977 283.381 86.7293 284.551 92.5337 284.348C98.3381 284.144 107.859 287.267 111.279 288.521C114.7 289.774 113.612 289.044 116.554 289.176C119.496 289.308 117.396 290.762 117.396 290.762Z" fill="url(#paint9_linear_16_2227)"/>
<path d="M55.2086 238.649C54.6221 240.267 61.6829 248.395 65.8795 251.992C70.0762 255.588 77.7233 262.067 79.6359 265.218C81.5486 268.37 84.3077 272.479 84.3077 272.479C84.3077 272.479 82.5595 256.442 72.8531 249.182C66.5498 244.462 55.8047 237.034 55.2086 238.649Z" fill="url(#paint10_linear_16_2227)"/>
<path d="M82.221 269.313C82.221 269.313 71.6887 271.297 61.8757 267.712C52.64 264.325 45.5485 260.58 41.2483 253.145C38.8428 248.983 37.761 244.66 37.8637 243.043C37.9664 241.426 38.7105 243.317 40.5261 247.289C42.3416 251.26 51.9391 255.869 59.1628 258.458C66.3865 261.047 73.1373 265.228 74.7852 267.054C78.244 270.885 81.6932 266.494 82.221 269.313Z" fill="url(#paint11_linear_16_2227)"/>
<path d="M22.1464 210.116C21.6138 216.05 22.5381 218.651 28.3055 221.778C34.0729 224.905 43.3408 227.284 42.2822 226.3C41.2236 225.317 40.6871 224.733 35.4651 221.772C30.2431 218.811 26.2594 216.765 24.1523 204.143C23.019 197.218 22.1464 210.116 22.1464 210.116Z" fill="url(#paint12_linear_16_2227)"/>
<path d="M112.19 161.482C107.02 166.641 109.931 169.244 108.948 170.754C107.965 172.265 106.278 167.442 107.708 161.104C111.424 144.649 124.462 134.237 126.363 135.314C127.647 136.056 120.538 153.189 112.19 161.482Z" fill="url(#paint13_linear_16_2227)"/>
<path d="M107.237 178.998C107.237 178.998 109.156 156.433 104.095 149.404C99.0326 142.374 91.1398 137.792 85.9368 136.981C80.7339 136.17 79.6512 138.899 79.6512 138.899C79.6512 138.899 89.6626 143.105 94.2342 149.051C99.0871 155.33 99.4393 161.908 101.613 167.341C103.281 171.323 105.158 175.214 107.237 178.998Z" fill="url(#paint14_linear_16_2227)"/>
<path d="M107.448 207.097C107.448 207.097 93.6647 191.224 88.1985 177.81C85.8426 172.097 82.9894 162.009 80.9847 163.105C78.9799 164.201 79.5994 175.963 81.5419 183.57C84.3788 194.683 87.3932 199.758 97.5381 205.825C101.52 208.202 105.264 210.955 108.72 214.047L107.448 207.097Z" fill="url(#paint15_linear_16_2227)"/>
<path d="M123.057 172.334C122.085 178.156 120.616 183.883 118.664 189.453C114.412 201.1 107.467 207.104 107.467 207.104L107.248 204.531C107.248 204.531 109.842 192.128 112.344 185.075C114.847 178.023 121.889 160.837 123.469 161.348C125.048 161.859 123.057 172.334 123.057 172.334Z" fill="url(#paint16_linear_16_2227)"/>
<path d="M235.969 275.932C235.969 275.932 230.678 287.285 226.849 295.61C223.627 303.066 218.01 309.234 210.888 313.138C206.335 315.712 201.224 320.27 199.792 318.556C198.36 316.842 210.396 303.646 214.93 297.104C220.017 289.763 235.969 275.932 235.969 275.932Z" fill="url(#paint17_linear_16_2227)"/>
<path d="M203.922 298.545C199.837 303.379 195.199 307.717 190.103 311.469C182.221 317.054 177.466 316.84 169.443 318.669C167.48 319.085 159.21 319.405 158.941 318.645C158.487 317.384 172.705 312.062 177.188 309.771C183.072 306.756 184.977 305.417 189.04 303.547C193.103 301.677 202.865 295.996 202.865 295.996L203.922 298.545Z" fill="url(#paint18_linear_16_2227)"/>
<path d="M249.159 256.604C249.159 256.604 241.134 261.365 235.134 263.018C230.85 264.207 217.207 262.095 217.124 261.542C216.923 260.374 235.468 256.494 239.27 256.211C241.909 256.014 248.798 255.089 250.366 255.702C251.933 256.314 249.159 256.604 249.159 256.604Z" fill="url(#paint19_linear_16_2227)"/>
<path d="M237.415 204.446C236.021 205.246 244.117 220.73 250.804 221.538C252.906 221.91 255.072 221.519 256.91 220.434C256.91 220.434 252.252 220.472 251.1 217.146C249.639 212.826 238.966 203.55 237.415 204.446Z" fill="url(#paint20_linear_16_2227)"/>
<path d="M212.66 139.029C210.341 141.935 208.444 145.153 207.023 148.589C204.451 154.882 206.17 162.239 205.32 165.905C204.47 169.572 200.069 177.134 200.069 177.134C202.961 175.001 205.305 172.211 206.907 168.993C210.454 161.764 214.127 137.223 212.66 139.029Z" fill="url(#paint21_linear_16_2227)"/>
<path d="M192.62 146.199C188.759 142.28 182.268 133.201 182.833 131.65C183.218 130.46 189.934 137.542 194.897 141.954C199.86 146.365 197.681 147.447 199.605 149.688C201.528 151.929 200.82 153.34 200.82 153.34C197.94 151.133 195.201 148.748 192.62 146.199Z" fill="url(#paint22_linear_16_2227)"/>
<path d="M38.1903 212.732C38.1903 212.732 38.5732 200.243 31.2079 194.518C25.0115 189.728 23.8463 188.846 25.6896 192.375C29.9265 200.525 30.4277 204.629 34.8029 210.175C37.5469 213.648 38.3369 218.938 39.5916 221.362C40.8464 223.786 41.1738 223.976 40.1597 219.801C39.1456 215.626 38.1903 212.732 38.1903 212.732Z" fill="url(#paint23_linear_16_2227)"/>
<path d="M28.013 206.212C28.013 206.212 32.3784 209.58 33.0044 210.276C34.1105 211.465 35.1004 212.756 35.9605 214.133C37.2123 216.064 38.2867 218.103 39.1705 220.227C39.7506 222.17 34.5795 218.174 34.5795 218.174C34.5795 218.174 30.0283 213.107 28.9291 210.04C27.8299 206.973 27.9995 207.196 27.7608 206.667C27.3889 205.737 28.013 206.212 28.013 206.212Z" fill="url(#paint24_linear_16_2227)"/>
</g>
<defs>
<linearGradient id="paint0_linear_16_2227" x1="-8.83694" y1="-463.799" x2="474.955" y2="719.305" gradientUnits="userSpaceOnUse">
<stop offset="0.08" stop-color="#5F7F58"/>
<stop offset="0.25" stop-color="#8BA285"/>
<stop offset="0.38" stop-color="#ACBCA7"/>
<stop offset="0.64" stop-color="#87AF93"/>
<stop offset="0.71" stop-color="#87A77C"/>
<stop offset="0.75" stop-color="#86A068"/>
<stop offset="0.82" stop-color="#5F7F58"/>
</linearGradient>
<linearGradient id="paint1_linear_16_2227" x1="63.4632" y1="-432.888" x2="505.082" y2="647.08" gradientUnits="userSpaceOnUse">
<stop offset="0.08" stop-color="#5F7F58"/>
<stop offset="0.25" stop-color="#8BA285"/>
<stop offset="0.38" stop-color="#ACBCA7"/>
<stop offset="0.64" stop-color="#87AF93"/>
<stop offset="0.71" stop-color="#87A77C"/>
<stop offset="0.75" stop-color="#86A068"/>
<stop offset="0.82" stop-color="#5F7F58"/>
</linearGradient>
<linearGradient id="paint2_linear_16_2227" x1="23.0368" y1="-416.359" x2="464.657" y2="663.608" gradientUnits="userSpaceOnUse">
<stop offset="0.08" stop-color="#5F7F58"/>
<stop offset="0.25" stop-color="#8BA285"/>
<stop offset="0.38" stop-color="#ACBCA7"/>
<stop offset="0.64" stop-color="#87AF93"/>
<stop offset="0.71" stop-color="#87A77C"/>
<stop offset="0.75" stop-color="#86A068"/>
<stop offset="0.82" stop-color="#5F7F58"/>
</linearGradient>
<linearGradient id="paint3_linear_16_2227" x1="57.0627" y1="-430.269" x2="498.673" y2="649.695" gradientUnits="userSpaceOnUse">
<stop offset="0.08" stop-color="#5F7F58"/>
<stop offset="0.25" stop-color="#8BA285"/>
<stop offset="0.38" stop-color="#ACBCA7"/>
<stop offset="0.64" stop-color="#87AF93"/>
<stop offset="0.71" stop-color="#87A77C"/>
<stop offset="0.75" stop-color="#86A068"/>
<stop offset="0.82" stop-color="#5F7F58"/>
</linearGradient>
<linearGradient id="paint4_linear_16_2227" x1="-85.7251" y1="-371.88" x2="355.895" y2="708.088" gradientUnits="userSpaceOnUse">
<stop offset="0.08" stop-color="#5F7F58"/>
<stop offset="0.25" stop-color="#8BA285"/>
<stop offset="0.38" stop-color="#ACBCA7"/>
<stop offset="0.64" stop-color="#87AF93"/>
<stop offset="0.71" stop-color="#87A77C"/>
<stop offset="0.75" stop-color="#86A068"/>
<stop offset="0.82" stop-color="#5F7F58"/>
</linearGradient>
<linearGradient id="paint5_linear_16_2227" x1="-105.814" y1="-363.665" x2="335.806" y2="716.303" gradientUnits="userSpaceOnUse">
<stop offset="0.08" stop-color="#5F7F58"/>
<stop offset="0.25" stop-color="#8BA285"/>
<stop offset="0.38" stop-color="#ACBCA7"/>
<stop offset="0.64" stop-color="#87AF93"/>
<stop offset="0.71" stop-color="#87A77C"/>
<stop offset="0.75" stop-color="#86A068"/>
<stop offset="0.82" stop-color="#5F7F58"/>
</linearGradient>
<linearGradient id="paint6_linear_16_2227" x1="-14.736" y1="-400.914" x2="426.884" y2="679.054" gradientUnits="userSpaceOnUse">
<stop offset="0.08" stop-color="#5F7F58"/>
<stop offset="0.25" stop-color="#8BA285"/>
<stop offset="0.38" stop-color="#ACBCA7"/>
<stop offset="0.64" stop-color="#87AF93"/>
<stop offset="0.71" stop-color="#87A77C"/>
<stop offset="0.75" stop-color="#86A068"/>
<stop offset="0.82" stop-color="#5F7F58"/>
</linearGradient>
<linearGradient id="paint7_linear_16_2227" x1="259.316" y1="736.773" x2="-139.814" y2="-418.381" gradientUnits="userSpaceOnUse">
<stop stop-color="#4B6768"/>
<stop offset="0.17" stop-color="#658384"/>
<stop offset="0.22" stop-color="#7C9A9A"/>
<stop offset="0.3" stop-color="#9DB9B9"/>
<stop offset="0.35" stop-color="#A9C5C5"/>
<stop offset="0.46" stop-color="#96C1C2"/>
<stop offset="0.56" stop-color="#8ABFC0"/>
<stop offset="0.82" stop-color="#4B6768"/>
<stop offset="0.94" stop-color="#98C2C2"/>
</linearGradient>
<linearGradient id="paint8_linear_16_2227" x1="-140.666" y1="-349.419" x2="300.953" y2="730.549" gradientUnits="userSpaceOnUse">
<stop offset="0.08" stop-color="#5F7F58"/>
<stop offset="0.25" stop-color="#8BA285"/>
<stop offset="0.38" stop-color="#ACBCA7"/>
<stop offset="0.64" stop-color="#87AF93"/>
<stop offset="0.71" stop-color="#87A77C"/>
<stop offset="0.75" stop-color="#86A068"/>
<stop offset="0.82" stop-color="#5F7F58"/>
</linearGradient>
<linearGradient id="paint9_linear_16_2227" x1="250.48" y1="732.431" x2="-139.235" y2="-395.475" gradientUnits="userSpaceOnUse">
<stop stop-color="#4B6768"/>
<stop offset="0.17" stop-color="#658384"/>
<stop offset="0.22" stop-color="#7C9A9A"/>
<stop offset="0.3" stop-color="#9DB9B9"/>
<stop offset="0.35" stop-color="#A9C5C5"/>
<stop offset="0.46" stop-color="#96C1C2"/>
<stop offset="0.56" stop-color="#8ABFC0"/>
<stop offset="0.82" stop-color="#4B6768"/>
<stop offset="0.94" stop-color="#98C2C2"/>
</linearGradient>
<linearGradient id="paint10_linear_16_2227" x1="-171.737" y1="-336.717" x2="269.883" y2="743.251" gradientUnits="userSpaceOnUse">
<stop offset="0.08" stop-color="#5F7F58"/>
<stop offset="0.25" stop-color="#8BA285"/>
<stop offset="0.38" stop-color="#ACBCA7"/>
<stop offset="0.64" stop-color="#87AF93"/>
<stop offset="0.71" stop-color="#87A77C"/>
<stop offset="0.75" stop-color="#86A068"/>
<stop offset="0.82" stop-color="#5F7F58"/>
</linearGradient>
<linearGradient id="paint11_linear_16_2227" x1="-181.32" y1="-332.793" x2="260.3" y2="747.175" gradientUnits="userSpaceOnUse">
<stop offset="0.08" stop-color="#5F7F58"/>
<stop offset="0.25" stop-color="#8BA285"/>
<stop offset="0.38" stop-color="#ACBCA7"/>
<stop offset="0.64" stop-color="#87AF93"/>
<stop offset="0.71" stop-color="#87A77C"/>
<stop offset="0.75" stop-color="#86A068"/>
<stop offset="0.82" stop-color="#5F7F58"/>
</linearGradient>
<linearGradient id="paint12_linear_16_2227" x1="-192.303" y1="-328.305" x2="249.317" y2="751.663" gradientUnits="userSpaceOnUse">
<stop offset="0.08" stop-color="#5F7F58"/>
<stop offset="0.25" stop-color="#8BA285"/>
<stop offset="0.38" stop-color="#ACBCA7"/>
<stop offset="0.64" stop-color="#87AF93"/>
<stop offset="0.71" stop-color="#87A77C"/>
<stop offset="0.75" stop-color="#86A068"/>
<stop offset="0.82" stop-color="#5F7F58"/>
</linearGradient>
<linearGradient id="paint13_linear_16_2227" x1="309.922" y1="547.539" x2="-96.3032" y2="-264.617" gradientUnits="userSpaceOnUse">
<stop stop-color="#4B6768"/>
<stop offset="0.17" stop-color="#658384"/>
<stop offset="0.22" stop-color="#7C9A9A"/>
<stop offset="0.3" stop-color="#9DB9B9"/>
<stop offset="0.35" stop-color="#A9C5C5"/>
<stop offset="0.46" stop-color="#96C1C2"/>
<stop offset="0.56" stop-color="#8ABFC0"/>
<stop offset="0.82" stop-color="#4B6768"/>
<stop offset="0.94" stop-color="#98C2C2"/>
</linearGradient>
<linearGradient id="paint14_linear_16_2227" x1="-114.228" y1="-360.229" x2="327.391" y2="719.739" gradientUnits="userSpaceOnUse">
<stop offset="0.08" stop-color="#5F7F58"/>
<stop offset="0.25" stop-color="#8BA285"/>
<stop offset="0.38" stop-color="#ACBCA7"/>
<stop offset="0.64" stop-color="#87AF93"/>
<stop offset="0.71" stop-color="#87A77C"/>
<stop offset="0.75" stop-color="#86A068"/>
<stop offset="0.82" stop-color="#5F7F58"/>
</linearGradient>
<linearGradient id="paint15_linear_16_2227" x1="-130.359" y1="-353.633" x2="311.261" y2="726.335" gradientUnits="userSpaceOnUse">
<stop offset="0.08" stop-color="#5F7F58"/>
<stop offset="0.25" stop-color="#8BA285"/>
<stop offset="0.38" stop-color="#ACBCA7"/>
<stop offset="0.64" stop-color="#87AF93"/>
<stop offset="0.71" stop-color="#87A77C"/>
<stop offset="0.75" stop-color="#86A068"/>
<stop offset="0.82" stop-color="#5F7F58"/>
</linearGradient>
<linearGradient id="paint16_linear_16_2227" x1="-108.115" y1="-362.73" x2="333.506" y2="717.237" gradientUnits="userSpaceOnUse">
<stop offset="0.08" stop-color="#5F7F58"/>
<stop offset="0.25" stop-color="#8BA285"/>
<stop offset="0.38" stop-color="#ACBCA7"/>
<stop offset="0.64" stop-color="#87AF93"/>
<stop offset="0.71" stop-color="#87A77C"/>
<stop offset="0.75" stop-color="#86A068"/>
<stop offset="0.82" stop-color="#5F7F58"/>
</linearGradient>
<linearGradient id="paint17_linear_16_2227" x1="-60.0495" y1="-382.383" x2="381.561" y2="697.582" gradientUnits="userSpaceOnUse">
<stop offset="0.08" stop-color="#5F7F58"/>
<stop offset="0.25" stop-color="#8BA285"/>
<stop offset="0.38" stop-color="#ACBCA7"/>
<stop offset="0.64" stop-color="#87AF93"/>
<stop offset="0.71" stop-color="#87A77C"/>
<stop offset="0.75" stop-color="#86A068"/>
<stop offset="0.82" stop-color="#5F7F58"/>
</linearGradient>
<linearGradient id="paint18_linear_16_2227" x1="-95.2541" y1="-367.988" x2="346.365" y2="711.98" gradientUnits="userSpaceOnUse">
<stop offset="0.08" stop-color="#5F7F58"/>
<stop offset="0.25" stop-color="#8BA285"/>
<stop offset="0.38" stop-color="#ACBCA7"/>
<stop offset="0.64" stop-color="#87AF93"/>
<stop offset="0.71" stop-color="#87A77C"/>
<stop offset="0.75" stop-color="#86A068"/>
<stop offset="0.82" stop-color="#5F7F58"/>
</linearGradient>
<linearGradient id="paint19_linear_16_2227" x1="-32.7727" y1="-393.534" x2="408.846" y2="686.433" gradientUnits="userSpaceOnUse">
<stop offset="0.08" stop-color="#5F7F58"/>
<stop offset="0.25" stop-color="#8BA285"/>
<stop offset="0.38" stop-color="#ACBCA7"/>
<stop offset="0.64" stop-color="#87AF93"/>
<stop offset="0.71" stop-color="#87A77C"/>
<stop offset="0.75" stop-color="#86A068"/>
<stop offset="0.82" stop-color="#5F7F58"/>
</linearGradient>
<linearGradient id="paint20_linear_16_2227" x1="400.67" y1="657.402" x2="11.5891" y2="-468.685" gradientUnits="userSpaceOnUse">
<stop stop-color="#4B6768"/>
<stop offset="0.17" stop-color="#658384"/>
<stop offset="0.22" stop-color="#7C9A9A"/>
<stop offset="0.3" stop-color="#9DB9B9"/>
<stop offset="0.35" stop-color="#A9C5C5"/>
<stop offset="0.46" stop-color="#96C1C2"/>
<stop offset="0.56" stop-color="#8ABFC0"/>
<stop offset="0.82" stop-color="#4B6768"/>
<stop offset="0.94" stop-color="#98C2C2"/>
</linearGradient>
<linearGradient id="paint21_linear_16_2227" x1="288.619" y1="704.853" x2="109.024" y2="-491.022" gradientUnits="userSpaceOnUse">
<stop stop-color="#4B6768"/>
<stop offset="0.17" stop-color="#658384"/>
<stop offset="0.22" stop-color="#7C9A9A"/>
<stop offset="0.3" stop-color="#9DB9B9"/>
<stop offset="0.35" stop-color="#A9C5C5"/>
<stop offset="0.46" stop-color="#96C1C2"/>
<stop offset="0.56" stop-color="#8ABFC0"/>
<stop offset="0.82" stop-color="#4B6768"/>
<stop offset="0.94" stop-color="#98C2C2"/>
</linearGradient>
<linearGradient id="paint22_linear_16_2227" x1="374.503" y1="670.729" x2="-15.0314" y2="-456.653" gradientUnits="userSpaceOnUse">
<stop stop-color="#4B6768"/>
<stop offset="0.17" stop-color="#658384"/>
<stop offset="0.22" stop-color="#7C9A9A"/>
<stop offset="0.3" stop-color="#9DB9B9"/>
<stop offset="0.35" stop-color="#A9C5C5"/>
<stop offset="0.46" stop-color="#96C1C2"/>
<stop offset="0.56" stop-color="#8ABFC0"/>
<stop offset="0.82" stop-color="#4B6768"/>
<stop offset="0.94" stop-color="#98C2C2"/>
</linearGradient>
<linearGradient id="paint23_linear_16_2227" x1="-185.089" y1="-331.254" x2="256.531" y2="748.713" gradientUnits="userSpaceOnUse">
<stop offset="0.08" stop-color="#5F7F58"/>
<stop offset="0.25" stop-color="#8BA285"/>
<stop offset="0.38" stop-color="#ACBCA7"/>
<stop offset="0.64" stop-color="#87AF93"/>
<stop offset="0.71" stop-color="#87A77C"/>
<stop offset="0.75" stop-color="#86A068"/>
<stop offset="0.82" stop-color="#5F7F58"/>
</linearGradient>
<linearGradient id="paint24_linear_16_2227" x1="-188.723" y1="-329.763" x2="252.887" y2="750.201" gradientUnits="userSpaceOnUse">
<stop offset="0.08" stop-color="#5F7F58"/>
<stop offset="0.25" stop-color="#8BA285"/>
<stop offset="0.38" stop-color="#ACBCA7"/>
<stop offset="0.64" stop-color="#87AF93"/>
<stop offset="0.71" stop-color="#87A77C"/>
<stop offset="0.75" stop-color="#86A068"/>
<stop offset="0.82" stop-color="#5F7F58"/>
</linearGradient>
<clipPath id="clip0_16_2227">
<rect width="280.97" height="236.93" fill="white" transform="translate(311.916 72.9336) rotate(107.928)"/>
</clipPath>
</defs>
</svg>
