<svg id="Layer_1" data-name="Layer 1" xmlns="http://www.w3.org/2000/svg" xmlns:xlink="http://www.w3.org/1999/xlink" viewBox="0 0 275.19 257.12">
	<defs>
		<style>
			.cls-1{fill:url(#linear-gradient);}.cls-2{fill:url(#linear-gradient-2);}.cls-3{fill:url(#linear-gradient-3);}.cls-4{fill:url(#linear-gradient-4);}.cls-5{fill:url(#linear-gradient-5);}.cls-6{fill:url(#linear-gradient-6);}.cls-7{fill:url(#linear-gradient-7);}.cls-8{fill:url(#linear-gradient-8);}.cls-9{fill:url(#linear-gradient-9);}.cls-10{fill:url(#linear-gradient-10);}.cls-11{fill:url(#linear-gradient-11);}.cls-12{fill:url(#linear-gradient-12);}.cls-13{fill:url(#linear-gradient-13);}.cls-14{fill:url(#linear-gradient-14);}.cls-15{fill:url(#linear-gradient-15);}.cls-16{fill:url(#linear-gradient-16);}.cls-17{fill:url(#linear-gradient-17);}.cls-18{fill:url(#linear-gradient-18);}.cls-19{fill:url(#linear-gradient-19);}.cls-20{fill:url(#linear-gradient-20);}.cls-21{fill:url(#linear-gradient-21);}.cls-22{fill:url(#linear-gradient-22);}.cls-23{fill:url(#linear-gradient-23);}.cls-24{fill:url(#linear-gradient-24);}.cls-25{fill:url(#linear-gradient-25);}
		</style>
		<linearGradient id="linear-gradient" x1="-30.85" y1="743.81" x2="452.94" y2="-439.29" gradientTransform="matrix(1, 0, 0, -1, 0, 218.02)" gradientUnits="userSpaceOnUse">
			<stop offset="0.08" stop-color="#5f7f58" />
			<stop offset="0.25" stop-color="#8ba285" />
			<stop offset="0.38" stop-color="#acbca7" />
			<stop offset="0.64" stop-color="#87af93" />
			<stop offset="0.71" stop-color="#87a77c" />
			<stop offset="0.75" stop-color="#86a068" />
			<stop offset="0.82" stop-color="#5f7f58" />
		</linearGradient>
		<linearGradient id="linear-gradient-2" x1="41.45" y1="712.9" x2="483.07" y2="-367.07" xlink:href="#linear-gradient" />
		<linearGradient id="linear-gradient-3" x1="1.01" y1="696.37" x2="442.63" y2="-383.6" xlink:href="#linear-gradient" />
		<linearGradient id="linear-gradient-4" x1="35.06" y1="710.29" x2="476.67" y2="-369.68" xlink:href="#linear-gradient" />
		<linearGradient id="linear-gradient-5" x1="-107.7" y1="651.78" x2="333.85" y2="-428.01" xlink:href="#linear-gradient" />
		<linearGradient id="linear-gradient-6" x1="-127.82" y1="643.68" x2="313.8" y2="-436.29" xlink:href="#linear-gradient" />
		<linearGradient id="linear-gradient-7" x1="-36.74" y1="680.93" x2="404.88" y2="-399.04" xlink:href="#linear-gradient" />
		<linearGradient id="linear-gradient-8" x1="237.3" y1="-456.76" x2="-161.83" y2="698.39" gradientTransform="matrix(1, 0, 0, -1, 0, 218.02)" gradientUnits="userSpaceOnUse">
			<stop offset="0" stop-color="#4b6768" />
			<stop offset="0.17" stop-color="#658384" />
			<stop offset="0.22" stop-color="#7c9a9a" />
			<stop offset="0.3" stop-color="#9db9b9" />
			<stop offset="0.35" stop-color="#a9c5c5" />
			<stop offset="0.46" stop-color="#96c1c2" />
			<stop offset="0.56" stop-color="#8abfc0" />
			<stop offset="0.82" stop-color="#4b6768" />
			<stop offset="0.94" stop-color="#98c2c2" />
		</linearGradient>
		<linearGradient id="linear-gradient-9" x1="-162.67" y1="629.43" x2="278.95" y2="-450.53" xlink:href="#linear-gradient" />
		<linearGradient id="linear-gradient-10" x1="228.48" y1="-452.41" x2="-161.24" y2="675.49" xlink:href="#linear-gradient-8" />
		<linearGradient id="linear-gradient-11" x1="-193.75" y1="616.73" x2="247.87" y2="-463.24" xlink:href="#linear-gradient" />
		<linearGradient id="linear-gradient-12" x1="-203.31" y1="612.81" x2="238.31" y2="-467.15" xlink:href="#linear-gradient" />
		<linearGradient id="linear-gradient-13" x1="-214.32" y1="608.32" x2="227.3" y2="-471.65" xlink:href="#linear-gradient" />
		<linearGradient id="linear-gradient-14" x1="291.62" y1="-265.67" x2="-114.61" y2="546.49" xlink:href="#linear-gradient-8" />
		<linearGradient id="linear-gradient-15" x1="-136.25" y1="640.24" x2="305.37" y2="-439.73" xlink:href="#linear-gradient" />
		<linearGradient id="linear-gradient-16" x1="-152.34" y1="633.66" x2="289.28" y2="-446.31" xlink:href="#linear-gradient" />
		<linearGradient id="linear-gradient-17" x1="-130.11" y1="642.75" x2="311.51" y2="-437.22" xlink:href="#linear-gradient" />
		<linearGradient id="linear-gradient-18" x1="-82.06" y1="662.4" x2="359.55" y2="-417.57" xlink:href="#linear-gradient" />
		<linearGradient id="linear-gradient-19" x1="-117.25" y1="648.01" x2="324.36" y2="-431.96" xlink:href="#linear-gradient" />
		<linearGradient id="linear-gradient-20" x1="-54.78" y1="673.55" x2="386.84" y2="-406.42" xlink:href="#linear-gradient" />
		<linearGradient id="linear-gradient-21" x1="378.65" y1="-377.39" x2="-10.43" y2="748.7" xlink:href="#linear-gradient-8" />
		<linearGradient id="linear-gradient-22" x1="266.59" y1="-424.84" x2="87" y2="771.03" xlink:href="#linear-gradient-8" />
		<linearGradient id="linear-gradient-23" x1="352.49" y1="-390.72" x2="-37.04" y2="736.67" xlink:href="#linear-gradient-8" />
		<linearGradient id="linear-gradient-24" x1="-207.11" y1="611.26" x2="234.51" y2="-468.7" xlink:href="#linear-gradient" />
		<linearGradient id="linear-gradient-25" x1="-210.77" y1="609.76" x2="230.84" y2="-470.2" xlink:href="#linear-gradient" />
	</defs>
	<path class="cls-1" d="M229.38,15.23l1.06,2.82c-44.93,21-49.17,62.73-49.2,63.15l-3-.28C181.41,56.67,197.08,31.83,229.38,15.23Z" />
	<path class="cls-2" d="M275.19,19.71c-3.29.17-14.43-.34-20,0-19.44,1.09-16.07.48-27.47-2,17.62,9.07,23.77,8.59,33.34,6.7A61,61,0,0,0,275.19,19.71Z" />
	<path class="cls-3" d="M214.84,0c-1,3.13-5.37,13.37-7.08,18.64-6.3,19.49-4.88,14.72-11.53,25C211,30.4,212.68,24.56,214.31,14.84A60.94,60.94,0,0,0,214.84,0Z" />
	<path class="cls-4" d="M239.19,17.8C231,21.05,219,21.65,219,21.65l1.76-1.87a126.14,126.14,0,0,1,14.09-7.31C241.56,9.65,245.05,6.3,252,3.28s11.57-.9,11.57-.9S247.38,14.53,239.19,17.8Z" />
	<path class="cls-5" d="M17.33,156.37c21,44,80.93,75.92,116.07,82.09C170.39,245,211,225,227,192.38c16-32.84,10.15-67.25,10.08-67.6-.32-1.79,1.9-3,2.8-1.51s6,37.41-10.22,70.52c-16.69,34.17-58.38,54.83-97,48.05C97,235.55,36.05,203,14.59,158.2,13.65,156.15,16.5,154.55,17.33,156.37Z" />
	<path class="cls-6" d="M86.51,116.88c-2.32,19.22-2,44.21,9.51,64,12.1,20.67,47.76,57.49,75.73,57.35v3c-28,.17-64.48-35.17-78.32-58.84-11.79-20.16-12.12-45.28-10.3-62.81C85.09,100.62,88.57,99.81,86.51,116.88Z" />
	<path class="cls-7" d="M178.25,80.87l2.84.35c-.05.39-8.16,37.82,13,65.79,10,13.15,35.31,19.71,43.68,8.22l2.68,1c-5.23,12-35,10.67-48.63-7.33C169.88,119.92,178.2,81.25,178.25,80.87Z" />
	<path class="cls-8" d="M79.18,212.81c-1.2,1-3.35,1.45-5.78-1.25s-5-5.46-2.25-9.27,7.2-1.14,8.95,2.32S82.38,210.1,79.18,212.81Z" />
	<path class="cls-9" d="M107.71,230.86s-3-5.93-7-12.55-20-19.08-20.73-18.35c-1.3,1.22,12,19.83,14.86,22.12S104.93,230,104.93,230" />
	<path class="cls-10" d="M95.38,228.77s-12.9,4.39-22.91,2.38-14.37-5.46-17.56-7.21c-2-1.12-3.08-3.46-.72-3.1,3.69.55,10.52,1.72,16.33,1.52s15.32,2.92,18.74,4.17,2.34.53,5.28.66S95.38,228.77,95.38,228.77Z" />
	<path class="cls-11" d="M33.19,176.66c-.58,1.62,6.48,9.75,10.67,13.34,14.94,12.8,12.2,11.22,18.43,20.49,0,0-1.75-16-11.45-23.3C44.53,182.47,33.79,175.05,33.19,176.66Z" />
	<path class="cls-12" d="M60.2,207.32s-10.53,2-20.34-1.6c-9.24-3.38-16.33-7.13-20.63-14.56-2.4-4.16-3.49-8.49-3.38-10.1s.84.27,2.66,4.24,11.41,8.58,18.64,11.17,14,6.77,15.62,8.6C56.23,208.9,59.68,204.51,60.2,207.32Z" />
	<path class="cls-13" d="M.13,148.13c-.53,5.93.39,8.53,6.16,11.66s15,5.51,14,4.52c-7.41-6.88-15.12-4.08-18.13-22.15C1,135.23.13,148.13.13,148.13Z" />
	<path class="cls-14" d="M90.17,99.49c-5.17,5.16-2.26,7.77-3.24,9.28s-2.67-3.32-1.24-9.65c3.72-16.46,16.76-26.87,18.66-25.79C105.63,74.07,98.52,91.2,90.17,99.49Z" />
	<path class="cls-15" d="M85.22,117s1.92-22.57-3.14-29.59S69.12,75.8,63.92,75s-6.29,1.92-6.29,1.92,10,4.21,14.59,10.15C78.63,95.36,75.16,98.7,85.22,117Z" />
	<path class="cls-16" d="M85.43,145.11s-13.78-15.87-19.25-29.29C63.83,110.11,61,100,59,101.12s-1.39,12.85.56,20.46c5.34,20.94,13,17.81,27.17,30.48Z" />
	<path class="cls-17" d="M101,110.35a103.39,103.39,0,0,1-4.39,17.12c-4.25,11.64-11.2,17.65-11.2,17.65l-.22-2.58s2.6-12.4,5.1-19.45,9.54-24.24,11.12-23.73S101,110.35,101,110.35Z" />
	<path class="cls-18" d="M214,213.94s-5.29,11.36-9.12,19.68a36.47,36.47,0,0,1-16,17.53c-4.55,2.57-9.66,7.13-11.09,5.42s10.6-14.91,15.13-21.45C198,227.78,214,213.94,214,213.94Z" />
	<path class="cls-19" d="M181.91,236.56a81.33,81.33,0,0,1-13.82,12.92c-7.89,5.59-12.64,5.37-20.66,7.2-2,.42-10.24.74-10.51,0-.45-1.26,13.77-6.59,18.25-8.88,5.89-3,7.79-4.35,11.85-6.22S180.85,234,180.85,234Z" />
	<path class="cls-20" d="M227.14,194.62s-8,4.76-14,6.41c-4.29,1.19-17.93-.92-18-1.48-.2-1.16,18.34-5,22.14-5.33,2.64-.19,9.53-1.12,11.1-.51S227.14,194.62,227.14,194.62Z" />
	<path class="cls-21" d="M215.4,142.46c-1.4.8,6.7,16.28,13.39,17.09a9,9,0,0,0,6.1-1.1s-4.65,0-5.81-3.29C227.62,150.84,217,141.56,215.4,142.46Z" />
	<path class="cls-22" d="M190.64,77c-10.44,13.09-5.94,20.84-7.34,26.88-.85,3.66-5.25,11.23-5.25,11.23a22.75,22.75,0,0,0,6.84-8.15C188.44,99.78,192.11,75.24,190.64,77Z" />
	<path class="cls-23" d="M170.6,84.21c-3.86-3.92-10.35-13-9.78-14.55.38-1.19,7.1,5.89,12.06,10.31s2.78,5.49,4.71,7.73,1.21,3.65,1.21,3.65A87,87,0,0,1,170.6,84.21Z" />
	<path class="cls-24" d="M16.17,150.74s.39-12.49-7-18.21c-6.19-4.79-7.36-5.67-5.52-2.14,4.24,8.15,4.74,12.25,9.12,17.8,2.74,3.47,3.53,8.76,4.79,11.18s1.58,2.62.56-1.56S16.17,150.74,16.17,150.74Z" />
	<path class="cls-25" d="M6,144.22s4.36,3.37,5,4.07a35,35,0,0,1,6.16,10c.58,1.94-4.59-2.05-4.59-2.05-6.26-7-6-9.64-6.82-11.51C5.37,143.75,6,144.22,6,144.22Z" />
</svg>
