<svg width="38" height="21" viewBox="0 0 38 21" fill="none" xmlns="http://www.w3.org/2000/svg">
<path d="M7.59009 7.82999C5.30009 7.82999 3.06006 5.49 3.06006 3.75V0.0400085H5.06006V3.75C5.23482 4.30459 5.56701 4.79643 6.01617 5.16571C6.46534 5.53499 7.01217 5.76577 7.59009 5.82999C8.67009 5.82999 10.0401 4.75 10.0801 4.06C10.1701 2.8 10.0801 0.0599976 10.0801 0.0599976L12.0801 0C12.0801 0.11 12.1701 2.82999 12.0801 4.17999C11.9501 6.14999 9.50009 7.82999 7.59009 7.82999Z" fill="url(#paint0_linear_16_2271)"/>
<path d="M18.8701 7.82999C16.5801 7.82999 14.3401 5.49 14.3401 3.75V0.0400085H16.3401V3.75C16.5149 4.30459 16.847 4.79643 17.2962 5.16571C17.7454 5.53499 18.2921 5.76577 18.8701 5.82999C19.9401 5.82999 21.31 4.75 21.36 4.06C21.44 2.8 21.36 0.0599976 21.36 0.0599976L23.36 0C23.36 0.11 23.45 2.82999 23.36 4.17999C23.22 6.14999 20.7801 7.82999 18.8701 7.82999Z" fill="url(#paint1_linear_16_2271)"/>
<path d="M7.59009 20.2101C5.30009 20.2101 3.06006 17.8701 3.06006 16.1301V12.4001H5.06006V16.1101C5.23482 16.6647 5.56701 17.1565 6.01617 17.5258C6.46534 17.8951 7.01217 18.1259 7.59009 18.1901C8.67009 18.1901 10.0401 17.1001 10.0801 16.4201C10.1701 15.1601 10.0801 12.4201 10.0801 12.4201L12.0801 12.3501C12.0801 12.4701 12.1701 15.1901 12.0801 16.5401C11.9501 18.5301 9.50009 20.2101 7.59009 20.2101Z" fill="url(#paint2_linear_16_2271)"/>
<path d="M18.8701 20.2101C16.5801 20.2101 14.3401 17.8701 14.3401 16.1301V12.4001H16.3401V16.1101C16.5149 16.6647 16.847 17.1565 17.2962 17.5258C17.7454 17.8951 18.2921 18.1259 18.8701 18.1901C19.9401 18.1901 21.31 17.1001 21.36 16.4201C21.44 15.1601 21.36 12.4201 21.36 12.4201L23.36 12.3501C23.36 12.4701 23.45 15.1901 23.36 16.5401C23.22 18.5301 20.7801 20.2101 18.8701 20.2101Z" fill="url(#paint3_linear_16_2271)"/>
<path d="M13.27 13.99C10.98 13.99 8.73999 11.65 8.73999 9.90002V6.19003H10.74V9.90002C10.9131 10.4565 11.2446 10.9505 11.6939 11.3216C12.1432 11.6928 12.6909 11.925 13.27 11.99C14.35 11.99 15.72 10.9 15.76 10.22C15.85 8.96003 15.76 6.22003 15.76 6.22003L17.76 6.15002C17.76 6.27002 17.85 8.99003 17.76 10.34C17.63 12.31 15.18 13.99 13.27 13.99Z" fill="url(#paint4_linear_16_2271)"/>
<path d="M24.53 13.99C22.24 13.99 20 11.65 20 9.90002V6.19003H22V9.90002C22.1731 10.4565 22.5046 10.9505 22.9539 11.3216C23.4032 11.6928 23.9509 11.925 24.53 11.99C25.61 11.99 26.98 10.9 27.02 10.22C27.11 8.96003 27.02 6.22003 27.02 6.22003L29.02 6.15002C29.02 6.27002 29.11 8.99003 29.02 10.34C28.89 12.31 26.44 13.99 24.53 13.99Z" fill="url(#paint5_linear_16_2271)"/>
<path d="M30.14 7.82999C27.85 7.82999 25.61 5.49 25.61 3.75V0.0400085H27.61V3.75C27.7847 4.30459 28.1169 4.79643 28.5661 5.16571C29.0153 5.53499 29.5621 5.76577 30.14 5.82999C31.22 5.82999 32.59 4.75 32.63 4.06C32.72 2.8 32.63 0.0599976 32.63 0.0599976L34.63 0C34.63 0.11 34.72 2.82999 34.63 4.17999C34.5 6.14999 32.05 7.82999 30.14 7.82999Z" fill="url(#paint6_linear_16_2271)"/>
<path d="M30.14 20.21C27.85 20.21 25.61 17.87 25.61 16.13V12.4H27.61V16.11C27.7847 16.6646 28.1169 17.1565 28.5661 17.5258C29.0153 17.895 29.5621 18.1258 30.14 18.19C31.22 18.19 32.59 17.1 32.63 16.42C32.72 15.16 32.63 11.98 32.63 11.95L34.63 11.89C34.63 12.03 34.72 15.2 34.63 16.55C34.5 18.53 32.05 20.21 30.14 20.21Z" fill="url(#paint7_linear_16_2271)"/>
<path d="M6.35004 6.16003L4.35004 6.23001C4.35004 6.23001 4.43004 8.96001 4.35004 10.23C4.35004 10.91 2.92999 12 1.85999 12C1.1427 11.9357 0.477228 11.5994 0 11.06V13.51C0.572794 13.8175 1.21006 13.9854 1.85999 14C3.76999 14 6.21003 12.32 6.34003 10.36C6.44003 9.00002 6.36004 6.28003 6.35004 6.16003Z" fill="url(#paint8_linear_16_2271)"/>
<path d="M37.7 11.2201C37.1997 11.6657 36.5678 11.936 35.9 11.9901C35.3209 11.9251 34.7732 11.6928 34.3239 11.3217C33.8746 10.9505 33.5431 10.4565 33.37 9.90005V6.19006H31.37V9.90005C31.37 11.6501 33.61 13.9901 35.9 13.9901C36.5241 13.9701 37.1371 13.8203 37.7 13.55V11.2201Z" fill="url(#paint9_linear_16_2271)"/>
<defs>
<linearGradient id="paint0_linear_16_2271" x1="-233.32" y1="222.26" x2="628.988" y2="-563.732" gradientUnits="userSpaceOnUse">
<stop offset="0.08" stop-color="#5F7F58"/>
<stop offset="0.25" stop-color="#8BA285"/>
<stop offset="0.38" stop-color="#ABBCA7"/>
<stop offset="0.64" stop-color="#88AF93"/>
<stop offset="0.71" stop-color="#87A77C"/>
<stop offset="0.75" stop-color="#86A068"/>
<stop offset="0.82" stop-color="#5F7F58"/>
</linearGradient>
<linearGradient id="paint1_linear_16_2271" x1="-228.209" y1="227.87" x2="634.109" y2="-558.117" gradientUnits="userSpaceOnUse">
<stop offset="0.08" stop-color="#5F7F58"/>
<stop offset="0.25" stop-color="#8BA285"/>
<stop offset="0.38" stop-color="#ABBCA7"/>
<stop offset="0.64" stop-color="#88AF93"/>
<stop offset="0.71" stop-color="#87A77C"/>
<stop offset="0.75" stop-color="#86A068"/>
<stop offset="0.82" stop-color="#5F7F58"/>
</linearGradient>
<linearGradient id="paint2_linear_16_2271" x1="-227.16" y1="229.02" x2="635.148" y2="-556.972" gradientUnits="userSpaceOnUse">
<stop offset="0.08" stop-color="#5F7F58"/>
<stop offset="0.25" stop-color="#8BA285"/>
<stop offset="0.38" stop-color="#ABBCA7"/>
<stop offset="0.64" stop-color="#88AF93"/>
<stop offset="0.71" stop-color="#87A77C"/>
<stop offset="0.75" stop-color="#86A068"/>
<stop offset="0.82" stop-color="#5F7F58"/>
</linearGradient>
<linearGradient id="paint3_linear_16_2271" x1="-222.039" y1="234.63" x2="640.269" y2="-551.346" gradientUnits="userSpaceOnUse">
<stop offset="0.08" stop-color="#5F7F58"/>
<stop offset="0.25" stop-color="#8BA285"/>
<stop offset="0.38" stop-color="#ABBCA7"/>
<stop offset="0.64" stop-color="#88AF93"/>
<stop offset="0.71" stop-color="#87A77C"/>
<stop offset="0.75" stop-color="#86A068"/>
<stop offset="0.82" stop-color="#5F7F58"/>
</linearGradient>
<linearGradient id="paint4_linear_16_2271" x1="-227.681" y1="228.45" x2="634.629" y2="-557.542" gradientUnits="userSpaceOnUse">
<stop offset="0.08" stop-color="#5F7F58"/>
<stop offset="0.25" stop-color="#8BA285"/>
<stop offset="0.38" stop-color="#ABBCA7"/>
<stop offset="0.64" stop-color="#88AF93"/>
<stop offset="0.71" stop-color="#87A77C"/>
<stop offset="0.75" stop-color="#86A068"/>
<stop offset="0.82" stop-color="#5F7F58"/>
</linearGradient>
<linearGradient id="paint5_linear_16_2271" x1="-222.571" y1="234.06" x2="639.739" y2="-551.932" gradientUnits="userSpaceOnUse">
<stop offset="0.08" stop-color="#5F7F58"/>
<stop offset="0.25" stop-color="#8BA285"/>
<stop offset="0.38" stop-color="#ABBCA7"/>
<stop offset="0.64" stop-color="#88AF93"/>
<stop offset="0.71" stop-color="#87A77C"/>
<stop offset="0.75" stop-color="#86A068"/>
<stop offset="0.82" stop-color="#5F7F58"/>
</linearGradient>
<linearGradient id="paint6_linear_16_2271" x1="-223.091" y1="233.49" x2="639.218" y2="-552.502" gradientUnits="userSpaceOnUse">
<stop offset="0.08" stop-color="#5F7F58"/>
<stop offset="0.25" stop-color="#8BA285"/>
<stop offset="0.38" stop-color="#ABBCA7"/>
<stop offset="0.64" stop-color="#88AF93"/>
<stop offset="0.71" stop-color="#87A77C"/>
<stop offset="0.75" stop-color="#86A068"/>
<stop offset="0.82" stop-color="#5F7F58"/>
</linearGradient>
<linearGradient id="paint7_linear_16_2271" x1="-216.931" y1="240.25" x2="645.38" y2="-545.742" gradientUnits="userSpaceOnUse">
<stop offset="0.08" stop-color="#5F7F58"/>
<stop offset="0.25" stop-color="#8BA285"/>
<stop offset="0.38" stop-color="#ABBCA7"/>
<stop offset="0.64" stop-color="#88AF93"/>
<stop offset="0.71" stop-color="#87A77C"/>
<stop offset="0.75" stop-color="#86A068"/>
<stop offset="0.82" stop-color="#5F7F58"/>
</linearGradient>
<linearGradient id="paint8_linear_16_2271" x1="-231.261" y1="224.53" x2="631.059" y2="-561.464" gradientUnits="userSpaceOnUse">
<stop offset="0.08" stop-color="#5F7F58"/>
<stop offset="0.25" stop-color="#8BA285"/>
<stop offset="0.38" stop-color="#ABBCA7"/>
<stop offset="0.64" stop-color="#88AF93"/>
<stop offset="0.71" stop-color="#87A77C"/>
<stop offset="0.75" stop-color="#86A068"/>
<stop offset="0.82" stop-color="#5F7F58"/>
</linearGradient>
<linearGradient id="paint9_linear_16_2271" x1="-217.531" y1="239.59" x2="644.778" y2="-546.403" gradientUnits="userSpaceOnUse">
<stop offset="0.08" stop-color="#5F7F58"/>
<stop offset="0.25" stop-color="#8BA285"/>
<stop offset="0.38" stop-color="#ABBCA7"/>
<stop offset="0.64" stop-color="#88AF93"/>
<stop offset="0.71" stop-color="#87A77C"/>
<stop offset="0.75" stop-color="#86A068"/>
<stop offset="0.82" stop-color="#5F7F58"/>
</linearGradient>
</defs>
</svg>
