<svg id="Layer_1" data-name="Layer 1" xmlns="http://www.w3.org/2000/svg" xmlns:xlink="http://www.w3.org/1999/xlink" viewBox="0 0 671.43 420.58">
	<defs>
		<style>
			.cls-1{fill:url(#linear-gradient);}.cls-2{fill:url(#linear-gradient-2);}.cls-3{fill:url(#linear-gradient-3);}.cls-4{fill:url(#linear-gradient-4);}.cls-5{fill:url(#linear-gradient-5);}.cls-6{fill:url(#linear-gradient-6);}.cls-7{fill:url(#linear-gradient-7);}.cls-8{fill:url(#linear-gradient-8);}.cls-9{fill:url(#linear-gradient-9);}
		</style>
		<linearGradient id="linear-gradient" x1="75.76" y1="305.8" x2="615.71" y2="125.69" gradientTransform="matrix(1, 0, 0, -1, 0, 438.61)" gradientUnits="userSpaceOnUse">
			<stop offset="0" stop-color="#51876f" />
			<stop offset="1" stop-color="#81a38e" />
		</linearGradient>
		<linearGradient id="linear-gradient-2" x1="804.67" y1="229.61" x2="805.21" y2="229.43" xlink:href="#linear-gradient" />
		<linearGradient id="linear-gradient-3" x1="812.07" y1="252.04" x2="812.6" y2="251.87" xlink:href="#linear-gradient" />
		<linearGradient id="linear-gradient-4" x1="754.64" y1="79.56" x2="755.18" y2="79.38" xlink:href="#linear-gradient" />
		<linearGradient id="linear-gradient-5" x1="546.87" y1="426.44" x2="610.38" y2="220.71" xlink:href="#linear-gradient" />
		<linearGradient id="linear-gradient-6" x1="507.09" y1="415.21" x2="571.06" y2="208.01" xlink:href="#linear-gradient" />
		<linearGradient id="linear-gradient-7" x1="621.6" y1="168.24" x2="261.4" y2="122.9" xlink:href="#linear-gradient" />
		<linearGradient id="linear-gradient-8" x1="686.93" y1="91.3" x2="45.62" y2="106.3" xlink:href="#linear-gradient" />
		<linearGradient id="linear-gradient-9" x1="300.2" y1="672.43" x2="798.03" y2="240.99" xlink:href="#linear-gradient" />
	</defs>
	<path class="cls-1" d="M377.07,420.58c.54.19,15.83-8,17.9-9.13,8.46-4.71,12.56-8.51,15.35-10.49,3.81-2.36,4.32,2.18,12.75-7.51a43.48,43.48,0,0,1,9.57-6.92,1,1,0,0,1,1.45.87c0,.89-2,2.12-1.34,2.64a.37.37,0,0,0,.5,0c.87-.84,11.49-11,12.53-11.08a1.12,1.12,0,0,1,1.17.9c.14.75-.43.86-1.24,3.69a.38.38,0,0,0,.67.31c5.3-7.61,9.7-13.42,19-18.28,6.55-3.44,16.26-9.08,21.14-14.37.21-.26,6.19-7.39,9.46-12.21a.36.36,0,0,1,.62,0c.22.35-.29,3-.42,3.48a.38.38,0,0,0,.7.26c3.6-7.24.93-11.46,2.28-11.22.46.08,2.08,2.12,2.78,4.17a.37.37,0,0,0,.72-.1c.69-16.91-11.63-33.48-10.91-39.46,0-.4.34-8.33.8-15.77a.27.27,0,0,1,.54,0c.58-1.76,9-.41,9.47-.32,4.59,1.38,9.91-4.83,10-5.38,1.35-3.72,6.6-5.27,9.36-5.79a6.23,6.23,0,0,0,5-5l.07-.21a6.21,6.21,0,0,1,3.69-4.89c4.78-2,9.68-7.7,9.91-8a20.53,20.53,0,0,1,3.18-2.71,4.28,4.28,0,0,1,6.66,3,9.85,9.85,0,0,0,1.56,4.14c4.69,8.66-4.64,14.42-4.86,14.57-6.38,4.16-4.65,11.27-4.51,11.8l0,.05a15.86,15.86,0,0,1-5.86,13.53,14.78,14.78,0,0,0-3.45,4.06c-2,3.51-6.61,4.33-9.54,4.43-9.26.29-17.23,6.61-21.12,14.16-.18.34.71,2,1,5a2.28,2.28,0,0,0,1.69,2c4.22,1.12,5.19-1.66,9.35-1.22,7.38.77,9.31-10.09,24.76-12.8,4.4-.77,5.52-3,7.63-3.44,1.85-.4,5.06-1.47,6.45-3.94a5.81,5.81,0,0,1,1.86-2.05c2.51-1.68,7.57-5.76,6.35-10.75,0-.15-1.22-4.81,5.6-9,.36-.18,7.73-4.18,12.72-20.36a.45.45,0,0,1,.74-.19c.38.36.61,5.95.62,6.74a.38.38,0,0,0,.73.14c3.43-10.37,2.13-18.46,2.35-18.78.75-1.06,1.61,3.12,4.58,3.86a.37.37,0,0,0,.41-.55,17.2,17.2,0,0,1-1.36-13.13c1-3.51-.12-4.34.26-6.8a10.11,10.11,0,0,0-.84-6.56c-3-4.56-2.34-9.89.18-14.71.16-.5,5.39-13.48,4-20.66-1.58-8.35,1.13-21.81,8-29.25a2,2,0,0,0-.57-3.19c-10.31-5.25-15.16-.32-14.78-2.09.14-.65,7.08-6.79,22,.78a12.4,12.4,0,0,1,3.37,2.45,10.77,10.77,0,0,0,7.25,3.46,4.26,4.26,0,0,1,3.54,1.61,4.42,4.42,0,0,0,4.09,1.71,8.16,8.16,0,0,1,3.3.18,26.53,26.53,0,0,0,15.85-.26.94.94,0,0,0,.23-1.64,42.86,42.86,0,0,1-9.64-9.61,6.56,6.56,0,0,0-1.76-1.84,11.53,11.53,0,0,1,6,3.43c2.13,2.32,6.94,7,10.63,8.06.17.06,6,1.71,14.38-3.26.26-.12,3-1.44,4.06-6.35a1.93,1.93,0,0,0-1.73-2.37,7.62,7.62,0,0,1-6.27-4.08c-4.35-8.32-7.4-9.88-6.09-10.09.61-.09,5.72,3.69,8.15,8.49.15.46,1.72,5.43,6.76,3.28.22-.09,4.51-1.8,2.3-9.72a25.66,25.66,0,0,0-4.47-8.75c-4.41-5.7-14.5-20.67-14.45-35.72-3.08-23.31,2.54-25,.8-29.32a5.14,5.14,0,0,0-2.35-2.62l-.07,0a23,23,0,0,1-4.82-7.52c-.11-.39-1.76-6.49-7.09-5.36l-.06,0a10.67,10.67,0,0,1-9-5.1c-1.33-2.15-4.64-6.36-8.52-4.84a4.26,4.26,0,0,0-1.49,1.21,3,3,0,0,1-3.54.87c-14.29-6.27-19.25-2.32-26.12-7.22-1.32-.94-1.28-1.08-1.52-1.08a.4.4,0,0,0-.39.52,37.65,37.65,0,0,1,1.92,4.54.34.34,0,0,1-.62.3A92.79,92.79,0,0,0,566.46,17c-.33-.23-10.4-7.7-14.61-12.3-.16-.17-5-5.14-7.44-4.68l-.09,0c-.45,0-3.4,0-2.17,10.05a.38.38,0,0,0,.65.2c.29-.3-.28-2.29,1-5.64a2,2,0,0,1,2.88-.83A6,6,0,0,1,549,7.06c.57.8,8.92,12.33,11.78,15l.07,0c4.9,6.68,16.48,25.82,13.78,24.92-.84-.28-3.68-10.78-15.63-24.11-.07-.09-10.06-11.61-11.4-15.14-.93-2.46-2-1.73-2.32-1.8-.51-.09-2.87,0-.42,9.84a19.59,19.59,0,0,1-.28,6.87c-3,9,5.21,21.94,11.09,29.39a.36.36,0,0,1-.51.51c-4.55-3.32-4.39-5.17-6-5.66a2.24,2.24,0,0,0-1.49.07,45,45,0,0,0-15,10c-2.41,2.45-7.94,6.86-10.63,7.49a3,3,0,0,0-1.86,1.36c-1,1.57.07,2.48-.6,2.68a4.57,4.57,0,0,0-3.23,4,20.26,20.26,0,0,1-3.86,5.16c-2.62,2.58-4.07,2-5.35,3.75s-.37,2.52-1.32,3.67-1.53.58-2.58,1.26a2.84,2.84,0,0,0-1.26,2,3.32,3.32,0,0,0,.12,1.32c0,.66-.71,6.35-9.09,16.58A44.36,44.36,0,0,0,486.44,117c-1.19,2.8-2.93,2.85-3.57,4.19a8.3,8.3,0,0,1-4.1,4.53.79.79,0,0,0,.26,1.46c10.19,1.6,10,1.14,10.22,1.4a.37.37,0,0,1,0,.5c-.25.25-12.12.48-12.22.48a67.36,67.36,0,0,1-9.81-.8c-3.84-.53-4.67,1.3-11.28,2.45a44.75,44.75,0,0,1-20.73-1.09c-4.16-1.2-12.73-2.88-17.17.55-2.11,1.63-6.89,3.19-8.56,2.67-.19-.06-3.55-1.15-5.55,1.06-.39.43-4.47-.87-6.47,2a.33.33,0,0,1-.24.15c-4.56.65-4.8,3-11.21,5.31-6.23,2.28-17,5.28-24.22,4.13l0,0c-25.26-.2-61.33-17.83-67.47-25.79-2.25-2.91-3.9-1.66-4.25-1.78s-2.05-3.16-4.63-1.69a10.9,10.9,0,0,1-9.54-4.76,6.33,6.33,0,0,0-5.72-2.89,1.62,1.62,0,0,1-1.32-.55,6.72,6.72,0,0,0-7-2,2.44,2.44,0,0,1-1.72-.16,16.32,16.32,0,0,0-10.9-1.5,24.68,24.68,0,0,1-13.11-.77c-6.24-2-9,.1-12.35-.68-8.17-1.91-11.91,1.23-18.87,2.84-6.31,1.45-16.55,3.27-22.66,1.18-.4-.07-4.46-.78-5.09-4.31-.86-4.91,6.32-4.66,5.45-2.06a13.2,13.2,0,0,1-.83,1.32c0,.15,0,.27.24.35.69.23,2.46-1.79,1.58-3.52-1.38-2.72-8.79-1.89-8.54,4,.09,2.11.44,2.68-.14,2.69a7.86,7.86,0,0,1-3.44-3.06.4.4,0,0,0-.72.21c-.1,2,1.33,2.59.6,2.8-.38.12-8.55-3.46-17.29-1.77-.43,0-12,1.46-17.61-2-.43-.22-10.54-5.21-20.13-5.09a2.24,2.24,0,0,0-1.79,3.55.33.33,0,0,1,0,.48c-.83.73-2.14-3.64-8.16-5.48a23.66,23.66,0,0,0-5.22-1c-.4-.13-5.41-1.1-7-2.74l-.08,0c-1-.65-1.87-.31-2,.12a3.28,3.28,0,0,0,.54,1.63c.06.15-.14.31-.28.23-1.85-.94-4.68,1.14-1.76,4.21a.32.32,0,0,1-.32.53,2.07,2.07,0,0,0-2.64,1.84,5.49,5.49,0,0,0,1,3,8.19,8.19,0,0,0,4.27,4.5,2.56,2.56,0,0,1,1.73,1.91c.37,1.79,1.7,4.5,7,4.37.77,0,5.23,0,5.56.4a.37.37,0,0,1,0,.53c-.23.2-3.35,0-4.61,1a.25.25,0,0,0,0,.11c-2,2.66,1.32,5.8,5.33,4.65,2.28-.65,6.62-1.34,9.88.45a.36.36,0,0,1-.22.68c-1.59-.16-3.9-.12-4,1.45-.12.38-1,5,4.62,5.69a4.66,4.66,0,0,1,3.79,3.16c1.81,5.28,3.48,3.11,8.51,3.72a8.89,8.89,0,0,1,6.46,4.32,5.52,5.52,0,0,0,5,2.62c2.49-.16,16.25-.58,14.3,1-.45.36-5.76-1-12.94,1.58-2.7,1-4.49.23-4.82.39a.37.37,0,0,0,0,.66c1.13.62,3,1,6.12.53.24,0,7.68-.87,12.59.52a.34.34,0,0,1-.07.66c-4.61.08-15.75,1.67-23.39,17.55C128.7,176,122.68,179.14,122.88,180c.21.62,2,.1,3.1.85a2.14,2.14,0,0,1,.87,2c-.24,1.72-4.21,4.89-5.77,5.88a.79.79,0,0,0,.11,1.44c1.86.72,2.52.61,2.75.83a.38.38,0,0,1,.06.44c-.22.44-7.09,3.41-10.71,8.75a.38.38,0,0,0,0,.46c.48.52,1.59-1.06,3.16-.81a2.25,2.25,0,0,1,1.75,3,42.9,42.9,0,0,0-3.89,13.71c0,.37-1.16,20-4.52,24.77-.33.66-8.14,15.68-8.91,23.18a1.55,1.55,0,0,0,1,1.6c1.21.5,8.29-.6,14-3.27a.38.38,0,0,1,.36.66,35.41,35.41,0,0,1-19.45,6.09c-.45,0-14.13-.87-23.09,9-4.93,4.1-9.17,6.87-15.55,7a5.26,5.26,0,0,0-4.73,2.12c-1.92,3.07-7.09,5.53-9.94,5.17-1.71-.22-6.32-.28-7.35,3.78a1.34,1.34,0,0,1-1.41,1c-2.59-.22-8.51-.05-7.82,5.67,0,0,0,.05,0,.07a8.4,8.4,0,0,1-5.15,10.7,4.25,4.25,0,0,0-2.44,5.1c.46,1.68.79,5.18-1.22,11.11a37.89,37.89,0,0,0-.14,24.77c2.8,7.94,5.75,10.69,5.67,11.29a.38.38,0,0,1-.62.23,34.73,34.73,0,0,1-11.15-18.78,2.36,2.36,0,0,0-3.92-1.22c-4.14,3.86-10.33,11.75-6.85,23a79.71,79.71,0,0,0,28,36.72h.06c.4.41,7.1,6.23,12.89-20a2.32,2.32,0,0,1,1.66-1.8c1.46-.38,3.88-1.75,5.71-6.91,4.7-13.31,14.2-24.41,19.74-34,5-8.65,16.28-23.95,36-32.28.22-.11,7.48-3.23,32.34.5a.36.36,0,0,1,.24.58,45.22,45.22,0,0,1-5,1.38.79.79,0,0,0-.09,1.52c3.2,1.05,9.84,2.49,19.47-1.05a.57.57,0,0,1,.58,1,9.78,9.78,0,0,0-2.35,3.5.37.37,0,0,0,.54.44c2.84-1.73,12-7.46,17.45-7.78,11.81-.7,13.63-2.45,14.18-1.31a.66.66,0,0,1-.18.78c-4.12,3.18-5.76,3.2-5.93,3.71a.38.38,0,0,0,.45.5,43.3,43.3,0,0,0,13.86-6.4.6.6,0,0,1,.86.77c-1.85,3.54-3,4.26-3,4.75a.52.52,0,0,0,.42.53c.73.16,5.24-2.73,7.55-4.73,10.87-9.42,17.46-8,26.38-15.86,4-3.53,5.92-2.81,35.94-27.49a.28.28,0,0,1,.18-.06c.64,0,.35.36-6.31,7.18a1.94,1.94,0,0,0-.65,1.95c.43,1.59,4.08,2.77,4.42,2.64,6.71-2.65,14.94,7.34,15.32,7.32,7.33.79,17.07-5.77,17.5-5.8,9.68-1.89,10.4,8.11,10.6,8.4a.36.36,0,0,0,.47.12c5.08-2.47,12.43,6.71,12.89,7.31l.07,0a11.4,11.4,0,0,0,5.56,2.66c3.15.54,6.13-.48,6.31-.81a.41.41,0,0,0,0-.24c-.32-2-2.71-4.18-3.93-5.14a.37.37,0,0,1,.22-.66c4.41,0,11.27,6.07,11.68,6.1,1,.05-.49-1.45.18-5.28a.36.36,0,0,1,.63-.18c3.48,3.6,11,4.39,12.09,4.5a.59.59,0,0,0,.25-.07c4.11-3,10,5.21,10.32,5.31a.48.48,0,0,0,.45-.1c3.84-4.17,13.52.73,13.9.93,6,2.56,11.75-3.26,12.15-3.62,6.3-8.53,20.11-.87,20.87-.44l-.07,0c11.83,3.83,17.38-3.65,18.21-4.87a.42.42,0,0,0,0-.31c-2.69-8.6-3.25-8.65-2.64-8.9a.36.36,0,0,1,.47.19,185.08,185.08,0,0,1,14,47.47,5.78,5.78,0,0,1-1.5,4.81c-14,14.91-13.57,20.49-24.48,27.09-2.58,1.56-4.44,2.54-6.83,2.68-1.41.08-3.5.5-4.13,2.16-1.15,3-5.5,3.61-8.37,3-.13-.05-3.88-.85-5.44,1.24a2.5,2.5,0,0,1-1.13.93,2.43,2.43,0,0,1-1.46.14c-2.2-.5-5.58-1-6.78,1-1.9,2.19-6,7.62-6.3,10.62,0-.2,0-.64.06-1.16.38-5.61,1.35-7.09,1.08-8.23a2.35,2.35,0,0,0-2.45-1.78c-4.64.34-12.37,1.94-16.84,8.74-2,3-2.54,6.45-8,17.64a56,56,0,0,1-3.94,6.68c-1.29,1.93-2.85,6.14,4,9a12.47,12.47,0,0,0,4,.9c2.86.2,8.67.62,15.24.68a6.46,6.46,0,0,1,2.3.46c1.95.79,7.18,2,16.12-2.16a.39.39,0,0,1,.41.63C378.76,418.11,376.14,420.27,377.07,420.58ZM154.24,240.25a.37.37,0,0,1,.22.62c-.27.3-2.55,0-5.33,2-3.43,2.48-4.85,7.13-4.55,11.33.19,2.75-1,8.12-4.14,10.63a.37.37,0,0,1-.58-.42c2.88-7.43,1-10.14,2.31-15.34C143.14,245.09,146.11,239.12,154.24,240.25Zm40.83-73.83-.88.06a1.56,1.56,0,0,1-1-.26,25.31,25.31,0,0,0-8.76-3.27c-2.82-1.16-6.08,2.38-6.28,2.63-4.73,4.5-12.15,2.38-12.3,2.35-5.77-1.51-13.41,1.5-16.16,2.75a.4.4,0,0,1-.46-.58c3.21-4.77,10.72-5.2,11.07-5.29a23.41,23.41,0,0,0,7-3.14,1.71,1.71,0,0,0,.71-1.89c-.68-2.45-3-.53-10.23-1.22a.37.37,0,0,1,0-.74,68.43,68.43,0,0,0,8.28-1.75c6.22-1.26,13.52.64,13.83.52a.37.37,0,0,0,.24-.33,12.42,12.42,0,0,0-2-2.76.37.37,0,0,1,.36-.61c8,1.84,14.38,7.33,17.76,10.66a1.69,1.69,0,0,1-1.12,2.89Zm-53,68.06a47.63,47.63,0,0,1-9.08,9.46.36.36,0,0,1-.59-.26c0-.51,6.42-8,7.4-13.54,2.42-7.13,7.93-14,15.55-15.72a9.17,9.17,0,0,0,5.11-4.21A9.7,9.7,0,0,0,158,197.94c-2.26-1.93-5.27-5.49-3.57-8.7a7.45,7.45,0,0,1,1.62-2.48c2.11-2.13,3.67-1.44,5.31-4,3.17-4.86,12.64-15.65,28.84-8.9a.37.37,0,0,1-.08.7c-19.32,3.42-24.81,15-21,24.09,3.52,8.39-1.84,17.3-11,19.41-3.67.84-9.83,3-11.5,7.85a.38.38,0,0,0,.44.48c4.47-.94,10.26,1.39,9.23,2.28-.42.37-9.28.4-14.25,5.79ZM555.83,79.57a.4.4,0,0,1,.44.63c-3.44,3.72-11.18,13.38-8.82,23.13a12.24,12.24,0,0,1-3.81,10.74c-.13.12-10.63,9.81-12.24,15.06-4.72,15.48-1.9,17.31,0,32a2,2,0,0,1-3.47,1.47c-3.33-4.23-8.25-10-13.14-13a2,2,0,0,1-.32-3.08c2.13-2.06,3.44-2.3,4-2.91s2.57-8.81,5.08-14.78c2-4.71,2.77-8.07,6.71-12.17,5.88-6.12,9.33-4.42,11.82-8.89a8,8,0,0,0,.86-5.47c0-.62-.76-15.17,12.89-22.7Zm68.36,25.9c-1.65-2.31-3.35-3.17-5-3.38-7.06-.9-12.42-5.89-12.87-10.78-.5-5.39-2.68-6.78-2.1-7.55a.54.54,0,0,1,.55-.2c4,.92,7.45-.93,14.45,3.83,4.19,2.32,4.81,6.66,4.83,8.89.09,7.2,1,9.36.27,9.26a.21.21,0,0,1-.12-.05Zm-31.75,39.69c-4.45,0-5,.84-6.32.11s-1.21-2.82-5-7.24a50.44,50.44,0,0,1-10.79-11.69c-3.66-5.63-1.7-9.49.19-11.52,3.17-3.4-7-5.76-.29-18.78a2.43,2.43,0,0,0-.54-2.91c-4.38-3.88-.28-8.81.11-9.26l0-.07c3.34-2.43,6.59-7.38,8-9.69a.37.37,0,0,1,.69.24c-.72,5.39-5.75,11.4-5.79,11.65a4.87,4.87,0,0,0-.46,3.41c.63,2.7,2.34,2.44,2.69,4.23a2.4,2.4,0,0,1-.2,1.56c-1.77,3.6-1.16,8.75-1.1,9.19v.06a9.65,9.65,0,0,0,2.84,6.52,2.45,2.45,0,0,1-.25,3.63,5.44,5.44,0,0,0-2.08,4.62c.38,6.84,9.91,11.58,11.05,12.08a.94.94,0,0,1,.22.07c6,3.68,9.57,9.75,9.57,11.33a2.5,2.5,0,0,1-2.54,2.48Z" />
	<path class="cls-2" d="M531.44,161.19c-.69-5.95-2-11.84-2.09-12.11-2.31-8.51,1.87-19.4,2.06-19.9,1.48-5.28,12.1-14.94,12.23-15.06a12.32,12.32,0,0,0,3.81-10.75c-2.87-11.81,8.89-22.83,8.91-23.36a.4.4,0,0,0-.53-.4c-13.65,7.54-12.94,22.06-12.91,22.67a8.08,8.08,0,0,1-5,9.07,22.75,22.75,0,0,0-12.61,13.11c-2.08,5.49-2.48,4.52-6.42,18.42a1.83,1.83,0,0,1-1,1.18c-1,.54-3.41,2.09-3.81,3.18-1.1,3,2.78,1.19,14,15.38a2,2,0,0,0,3.23-.21A2,2,0,0,0,531.44,161.19Z" />
	<path class="cls-3" d="M585.41,131.47c-9.59-4.17-14.28-12.8-9.18-16.75a2.45,2.45,0,0,0,.25-3.62,9.64,9.64,0,0,1-2.85-6.52c-.06-.45-.68-5.61,1.1-9.21a2.44,2.44,0,0,0-.58-2.91,4.9,4.9,0,0,1-1.45-6.3.14.14,0,0,1,0-.06c4.13-5.21,7-12.6,5.27-12-.4.14-3.73,6.58-8.16,9.85l0,.06c-.39.45-4.48,5.39-.11,9.27a2.4,2.4,0,0,1,.54,2.89c-2.78,5.45-3.52,10.84.37,15.56a2.45,2.45,0,0,1-.07,3.22c-1.88,2-3.85,5.9-.2,11.52a50.1,50.1,0,0,0,10.78,11.69c3.62,4.4,3.56,6.45,5,7.25s1.88-.18,6.34-.1a2.52,2.52,0,0,0,2.58-2.53C595,141.25,591.45,135.16,585.41,131.47Z" />
	<path class="cls-4" d="M523.77,303.66c2.94-.09,7.49-.92,9.54-4.43a15,15,0,0,1,3.46-4.07,16,16,0,0,0,5.86-13.52l0-.05c-.15-.53-1.93-7.74,4.5-11.8.24-.15,9.55-5.92,4.86-14.57a9.85,9.85,0,0,1-1.56-4.14,4.27,4.27,0,0,0-6.65-3,20.53,20.53,0,0,0-3.18,2.71c-.23.27-5.12,5.94-9.91,8a6.12,6.12,0,0,0-3.7,4.9,1.43,1.43,0,0,1-.07.2,6.22,6.22,0,0,1-5,4.94c-2.76.53-8,2-9.36,5.78-.08.47-5.36,6.79-10,5.38-1.78-.29-9.54-1.38-9.49.4l0,0c-.05,1.19.27,6.64.5,8.72a64.2,64.2,0,0,0,1.69,9.94c2.29,9.11,5.42,13.69,7,17.93a.36.36,0,0,0,.66.05C505.72,312,514.69,304,523.77,303.66Z" />
	<path class="cls-5" d="M585.41,131.47c-9.59-4.17-14.28-12.8-9.18-16.75a2.45,2.45,0,0,0,.25-3.62,9.64,9.64,0,0,1-2.85-6.52c-.06-.45-.68-5.61,1.1-9.21a2.44,2.44,0,0,0-.58-2.91,4.9,4.9,0,0,1-1.45-6.3.14.14,0,0,1,0-.06c4.13-5.21,7-12.6,5.27-12-.4.14-3.73,6.58-8.16,9.85l0,.06c-.39.45-4.48,5.39-.11,9.27a2.4,2.4,0,0,1,.54,2.89c-2.78,5.45-3.52,10.84.37,15.56a2.45,2.45,0,0,1-.07,3.22c-1.88,2-3.85,5.9-.2,11.52a50.1,50.1,0,0,0,10.78,11.69c3.62,4.4,3.56,6.45,5,7.25s1.88-.18,6.34-.1a2.52,2.52,0,0,0,2.58-2.53C595,141.25,591.45,135.16,585.41,131.47Z" />
	<path class="cls-6" d="M531.44,161.19c-.69-5.95-2-11.84-2.09-12.11-2.31-8.51,1.87-19.4,2.06-19.9,1.48-5.28,12.1-14.94,12.23-15.06a12.32,12.32,0,0,0,3.81-10.75c-2.87-11.81,8.89-22.83,8.91-23.36a.4.4,0,0,0-.53-.4c-13.65,7.54-12.94,22.06-12.91,22.67a8.08,8.08,0,0,1-5,9.07,22.75,22.75,0,0,0-12.61,13.11c-2.08,5.49-2.48,4.52-6.42,18.42a1.83,1.83,0,0,1-1,1.18c-1,.54-3.41,2.09-3.81,3.18-1.1,3,2.78,1.19,14,15.38a2,2,0,0,0,3.23-.21A2,2,0,0,0,531.44,161.19Z" />
	<path class="cls-7" d="M502.58,318c3.95-7.58,11.86-14,21.18-14.3,2.94-.1,7.49-.93,9.54-4.44a15.34,15.34,0,0,1,3.46-4.07,15.94,15.94,0,0,0,5.86-13.51v-.06c-.14-.53-1.92-7.74,4.51-11.8.24-.15,9.55-5.91,4.86-14.57a9.76,9.76,0,0,1-1.56-4.13,4.28,4.28,0,0,0-6.65-3,21.68,21.68,0,0,0-3.18,2.71c-.23.28-5.12,5.95-9.91,8a6.11,6.11,0,0,0-3.7,4.9.82.82,0,0,1-.07.2,6.19,6.19,0,0,1-5,4.94c-2.76.53-8,2.06-9.36,5.79-.07.46-5.36,6.78-10,5.38-1.76-.29-9.54-1.38-9.49.39l-.06.18a73.89,73.89,0,0,0,4.37,25.73A83.09,83.09,0,0,0,502.58,318Z" />
	<path class="cls-8" d="M507.18,391.9c.06-.21,3.36-6.84,5.83-12.85,3.86-9.35,1.92-12.11,4.61-16.3a11.89,11.89,0,0,1,11.94-5c1.57.25,8.18.94,8.61.52a.38.38,0,0,0-.14-.63c-1.18-.33-2.66-.75-4-1.2a3.47,3.47,0,0,1,0-6.61.65.65,0,0,0,.24-.09c5.12-4.41,2.7-8,3.49-10.06.65-1.67,2.62-1.91,4.24-5.4.6-1.29.83-2.77,0-3.82-.31-.51-4.48-7.87,3.86-8,2.05-.2,2.74,0,3-.21a.37.37,0,0,0,.08-.47c-.26-.43-6.37-2.21-11.15-.35-3.25,1.27-5.08,1.4-10.14,2.68-.53.2-2.16-3.12,5.48-7,9.17-4.61,21.43-3.67,29.13-16.53a17.12,17.12,0,0,0,2.42-8.18l0-.08a11.13,11.13,0,0,1,3.91-8.15c3.06-2.61,5.5-4.49,8.8-3.87,11,2.05,17.92,10.21,17.91,10.91a.37.37,0,0,1-.32.36c-.26,0-1.42-.83-3.95-2.14a.38.38,0,0,0-.44.59c6.51,7.15,11.64,22.49,12.7,24.56a.37.37,0,0,1-.55.48,13.94,13.94,0,0,1-4.82-6.36c-.24-.64-1.64-4-2.08-4.09-1.87-.54,3.74,7.47-3.66,19.52a123.79,123.79,0,0,0-7.42,11.95,29.12,29.12,0,0,0-3.35,13.79,3.84,3.84,0,0,1-1.21,3.06c-.15.13-2.1.45-1.31,4.18a2.23,2.23,0,0,1-1.55,2.45,6.53,6.53,0,0,0-4.6,5.65,8.81,8.81,0,0,0,.54,3.69c0,3.06-3,2.54-4.06,6.41-1.4,5.33-6.19,15.42-20.07,21.67-.53.27-24.61,12.68-41.55,10.48a1.82,1.82,0,0,1-1.41-1C505.05,404.47,503.34,399.3,507.18,391.9Z" />
	<path class="cls-9" d="M613.34,26.91c-.5,3.64,1.66,9.79,2.69,12.28a.42.42,0,0,1-.58.53c-4.72-2.46-12.41-2.46-12.73-2.45-5.09.1-11.15-2.64-11.6-2.87a5.69,5.69,0,0,1-1.92-1.81,6.41,6.41,0,0,1-1-2.49c-5.48-12.24-7.75-13.5-7.74-14.13a.38.38,0,0,1,.58-.3,14.31,14.31,0,0,1,3.41,4,.38.38,0,0,0,.69-.28c-.94-4.43-.37-3.14-1.83-8.51-1.41-5.21.68-6,1.16-6.14a.26.26,0,0,0,.16-.09c2.61-2.49,7.91,2.3,8.17,2.54a21.88,21.88,0,0,0,5.42,3c11.18,4.26,13.5,14.05,13.88,14.32s.66-.72.73-1.36a.37.37,0,0,1,.73,0A13.09,13.09,0,0,1,613.34,26.91Z" />
</svg>
