<svg width="310" height="53" viewBox="0 0 310 53" fill="none" xmlns="http://www.w3.org/2000/svg">
<path d="M176.85 50.5793H161.891V50.0814C165.797 48.5908 168.081 45.7348 170.461 40.8903L190.755 0.00297958H191.48L212.669 42.6015C215.05 47.3029 216.097 48.5848 219.917 50.0814V50.5793H201.073V50.0814C203.928 49.2258 205.262 48.3702 205.262 46.6619C205.262 45.5201 204.787 44.0951 203.928 42.3869L199.547 33.7682H176.85L173.422 40.6786C172.643 42.0642 172.222 43.5676 172.186 45.0938C172.186 47.5146 173.803 49.0827 176.85 50.0814V50.5793ZM177.709 31.9854H198.568L187.997 11.1169L177.709 31.9854ZM224.295 26.3599C224.295 39.823 230.615 48.719 240.917 48.719C247.846 48.719 253.13 44.7987 253.13 37.8912V35.9057C253.13 31.2044 252.264 28.7806 248.278 27.2841V27.1439H264.473V27.2841C261.095 28.7091 260.487 31.2044 260.487 35.9057V51.2918H260.313L253.822 42.8818C252.264 47.3715 246.893 51.2888 239.359 51.2888C225.679 51.2888 215.633 40.6757 215.633 26.2854C215.633 10.8278 227.15 0 241.001 0C246.458 0 250.093 2.28063 252.778 2.28063C255.116 2.28063 256.765 1.06727 257.714 0L258.406 16.3132H258.232C255.377 8.19237 249.14 1.63669 241.349 1.63669C230.528 1.63967 224.295 11.6864 224.295 26.3599ZM300.998 0.721453C302.546 0.721453 304.26 0.649904 305.271 0.223591L307.909 12.4048H307.293C302.749 5.63747 298.273 2.42969 288.086 2.42969H278.997V24.3714H286.089C293.453 24.3714 295.294 23.0895 298.385 16.4652H298.998V32.847H298.385C295.294 26.2883 293.453 26.0081 286.089 26.0081H278.997V48.874H289.362C299.545 48.874 304.749 45.386 309.384 37.6199H310L307.547 50.5852H265.897V50.0874C270.246 48.6623 271.079 46.5248 271.079 41.8234V9.49218C271.079 4.79081 270.26 2.29851 265.897 0.873493V0.730396L300.998 0.721453ZM45.6431 6.21285C45.6431 3.78912 44.0051 2.15243 41.1893 1.22528V0.715489H55.3733L54.9566 1.4757C51.6697 0.965912 48.1074 8.57099 47.2811 10.3329L28.1868 51.2918H27.462L6.91079 8.69322C4.548 3.99184 3.64928 2.70992 0 1.21335V0.715489H18.0217V1.21335C15.2929 2.06896 14.0354 2.85302 14.0354 4.56125C14.0354 5.70008 14.492 7.1251 15.398 8.90786L30.6728 40.1063L44.4762 10.5445C45.0959 9.11953 45.6431 7.70345 45.6431 6.21285ZM72.5543 50.0933V50.5912H54.2789V50.0933C58.6276 48.6683 59.4611 46.5308 59.4611 41.8294V9.49218C59.4611 4.79081 58.4029 1.58302 54.2789 1.22826V0.715489H72.5543V1.21335C68.2056 2.63837 67.3721 4.79081 67.3721 9.47727V41.8175C67.3721 46.5188 68.1911 48.6564 72.5543 50.0814V50.0933ZM121.441 10.5565V53H120.31L84.4334 6.12937V40.8188C84.4334 46.1611 86.9086 48.6564 91.1449 50.0814V50.5793H75.3374V50.0814C79.5774 48.6564 81.9619 46.1611 81.9619 40.7472V9.49218C81.9619 4.79081 81.1647 2.65328 76.9283 1.22826V0.715489H89.9998L119.056 38.6097V10.4015C119.056 5.05912 116.581 2.56682 112.345 1.21335V0.715489H128.152V0.846663C123.912 2.28063 121.441 5.05912 121.441 10.5445V10.5565ZM169.015 0.718471C170.563 0.718471 172.277 0.646923 173.288 0.220609L175.462 14.8285H174.85C169.668 6.28141 167.28 2.28957 157.006 2.28957H152.74V42.3869C152.74 47.0883 154.012 49.0111 158.379 50.4362V50.5793H139.194V50.4362C143.543 49.0111 144.829 47.0883 144.829 42.3869V2.28063H131.874C121.6 2.28063 121.441 8.9496 121.441 14.8196L119.944 14.9746L120.814 1.88711C121.814 2.31342 127.011 0.715489 128.558 0.715489L169.015 0.718471Z" fill="url(#paint0_linear_472_173)"/>
<defs>
<linearGradient id="paint0_linear_472_173" x1="-288.71" y1="357.436" x2="714.343" y2="-753.935" gradientUnits="userSpaceOnUse">
<stop offset="0.08" stop-color="#5F7F58"/>
<stop offset="0.25" stop-color="#8BA285"/>
<stop offset="0.46" stop-color="#ACBCA7"/>
<stop offset="0.64" stop-color="#87AF93"/>
<stop offset="0.71" stop-color="#87A77C"/>
<stop offset="0.75" stop-color="#86A068"/>
<stop offset="0.82" stop-color="#5F7F58"/>
</linearGradient>
</defs>
</svg>
