<svg id="Layer_1" data-name="Layer 1" xmlns="http://www.w3.org/2000/svg" xmlns:xlink="http://www.w3.org/1999/xlink" viewBox="0 0 519.55 136.62">
	<defs>
		<style>
			.cls-1{fill:url(#linear-gradient);}.cls-2{fill:url(#linear-gradient-2);}.cls-3{fill:url(#linear-gradient-3);}.cls-4{fill:url(#linear-gradient-4);}.cls-5{fill:url(#linear-gradient-5);}.cls-6{fill:url(#linear-gradient-6);}.cls-7{fill:url(#linear-gradient-7);}.cls-8{fill:url(#linear-gradient-8);}.cls-9{fill:url(#linear-gradient-9);}.cls-10{fill:url(#linear-gradient-10);}.cls-11{fill:url(#linear-gradient-11);}.cls-12{fill:url(#linear-gradient-12);}.cls-13{fill:url(#linear-gradient-13);}.cls-14{fill:url(#linear-gradient-14);}.cls-15{fill:url(#linear-gradient-15);}.cls-16{fill:url(#linear-gradient-16);}.cls-17{fill:url(#linear-gradient-17);}.cls-18{fill:url(#linear-gradient-18);}
		</style>
		<linearGradient id="linear-gradient" x1="-419.07" y1="-609.56" x2="1494.3" y2="1134.46" gradientTransform="matrix(1, 0, 0, -1, 0, 107.23)" gradientUnits="userSpaceOnUse">
			<stop offset="0.08" stop-color="#5f7f58" />
			<stop offset="0.25" stop-color="#8ba285" />
			<stop offset="0.46" stop-color="#acbca7" />
			<stop offset="0.64" stop-color="#87af93" />
			<stop offset="0.71" stop-color="#87a77c" />
			<stop offset="0.75" stop-color="#86a068" />
			<stop offset="0.82" stop-color="#5f7f58" />
		</linearGradient>
		<linearGradient id="linear-gradient-2" x1="-103.06" y1="458.03" x2="192.71" y2="-359.68" gradientTransform="matrix(1, 0, 0, -1, 0, 107.23)" gradientUnits="userSpaceOnUse">
			<stop offset="0" stop-color="#4b6768" />
			<stop offset="0.17" stop-color="#658384" />
			<stop offset="0.22" stop-color="#7c9a9a" />
			<stop offset="0.3" stop-color="#9db9b9" />
			<stop offset="0.35" stop-color="#a9c5c5" />
			<stop offset="0.46" stop-color="#96c1c2" />
			<stop offset="0.56" stop-color="#8abfc0" />
			<stop offset="0.82" stop-color="#4b6768" />
			<stop offset="0.94" stop-color="#98c2c2" />
		</linearGradient>
		<linearGradient id="linear-gradient-3" x1="243.53" y1="-304.81" x2="-81.89" y2="459.42" gradientTransform="matrix(1, 0, 0, -1, 0, 107.23)" gradientUnits="userSpaceOnUse">
			<stop offset="0.08" stop-color="#5f7f58" />
			<stop offset="0.25" stop-color="#8ba285" />
			<stop offset="0.38" stop-color="#acbca7" />
			<stop offset="0.64" stop-color="#87af93" />
			<stop offset="0.71" stop-color="#87a77c" />
			<stop offset="0.75" stop-color="#86a068" />
			<stop offset="0.82" stop-color="#5f7f58" />
		</linearGradient>
		<linearGradient id="linear-gradient-4" x1="235.11" y1="-308.4" x2="-90.31" y2="455.83" xlink:href="#linear-gradient-3" />
		<linearGradient id="linear-gradient-5" x1="210.6" y1="-318.84" x2="-114.83" y2="445.4" xlink:href="#linear-gradient-3" />
		<linearGradient id="linear-gradient-6" x1="206.21" y1="-320.7" x2="-119.21" y2="443.52" xlink:href="#linear-gradient-3" />
		<linearGradient id="linear-gradient-7" x1="239.48" y1="-306.53" x2="-85.94" y2="457.69" xlink:href="#linear-gradient-3" />
		<linearGradient id="linear-gradient-8" x1="190.52" y1="-327.38" x2="-134.9" y2="436.85" xlink:href="#linear-gradient-3" />
		<linearGradient id="linear-gradient-9" x1="224.18" y1="-313.05" x2="-101.24" y2="451.18" xlink:href="#linear-gradient-3" />
		<linearGradient id="linear-gradient-10" x1="218.1" y1="-315.64" x2="-107.32" y2="448.59" xlink:href="#linear-gradient-3" />
		<linearGradient id="linear-gradient-11" x1="246.98" y1="-303.34" x2="-78.44" y2="460.88" xlink:href="#linear-gradient-3" />
		<linearGradient id="linear-gradient-12" x1="-16.64" y1="411.25" x2="226.13" y2="-259.92" gradientTransform="matrix(0.82, 0.58, 0.58, -0.82, -32.31, 33.15)" xlink:href="#linear-gradient-2" />
		<linearGradient id="linear-gradient-13" x1="-49.65" y1="477.65" x2="246.29" y2="-340.53" xlink:href="#linear-gradient-2" />
		<linearGradient id="linear-gradient-14" x1="296.12" y1="-282.42" x2="-29.3" y2="481.82" xlink:href="#linear-gradient-3" />
		<linearGradient id="linear-gradient-15" x1="339.52" y1="-234.9" x2="-74.1" y2="485.42" xlink:href="#linear-gradient-3" />
		<linearGradient id="linear-gradient-16" x1="174.76" y1="-334.09" x2="-150.66" y2="430.13" xlink:href="#linear-gradient-3" />
		<linearGradient id="linear-gradient-17" x1="170.61" y1="-335.86" x2="-154.81" y2="428.36" xlink:href="#linear-gradient-3" />
		<linearGradient id="linear-gradient-18" x1="182.33" y1="-330.87" x2="-143.09" y2="433.35" xlink:href="#linear-gradient-3" />
	</defs>
	<path class="cls-1" d="M310.8,132H287.35v-.95c6.13-2.84,9.71-8.29,13.44-17.52L332.6,35.62h1.14L367,116.8c3.73,9,5.37,11.41,11.36,14.26V132H348.78v-.95c10.66-3.89,7.31-7.9-2.39-31.09H310.8c-6.52,16-7.22,16.88-7.31,21.58s2.54,7.6,7.31,9.51Zm1.35-35.44h32.7L328.28,56.8Zm73-10.72c0,25.66,9.91,42.61,26.06,42.61,10.87,0,19.15-7.47,19.15-20.63,0-9.62.41-16.56-7.61-20.22v-.26h25.39v.26c-5.29,2.72-6.25,7.47-6.25,16.43v29.32h-.27l-10.17-16c-2.45,8.55-10.87,16-22.68,16-21.45,0-37.19-20.23-37.19-47.65,0-29.46,18.05-50.09,39.77-50.09,8.55,0,14.25,4.34,18.46,4.34a9.75,9.75,0,0,0,7.74-4.34l1.08,31.08h-.27c-4.48-15.47-14.25-28-26.47-28C395,38.74,385.18,57.89,385.18,85.85ZM512.13,36l4.14,23.22h-1c-11.5-20.83-21.24-19-44.36-19V82.06c20.89,0,24,1.63,30.4-15.07h1V98.21h-1c-5.67-14.61-7.93-13-30.4-13v43.58c24.16,0,36,2.31,47.64-21.45h1L515.7,132H450.41v-1c6.81-2.72,8.12-6.79,8.12-15.75V53.71c0-9-1.28-13.71-8.12-16.43V37C508.65,37,509.49,37.4,512.13,36Zm-407,11.42c0-4.62-2.57-7.74-7-9.51V37h22.24l-.65,1.45c-5.16-1-10.74,13.52-12,16.88L77.74,133.36H76.6L44.38,52.18c-3.7-9-5.11-11.4-10.83-14.25V37H61.8v1c-5.74,2.19-8.48,4.22-4.11,14.66l24,59.46,21.64-56.34A24.59,24.59,0,0,0,105.11,47.46ZM147.29,132H118.64v-.95c6.82-2.72,8.13-6.79,8.13-15.75V53.71c0-9-1.66-15.08-8.13-15.75V37h28.65v1c-6.81,2.71-8.12,6.82-8.12,15.75v61.63c0,9,1.28,13,8.12,15.75Zm76.65,4.59h-1.78L165.92,47.3v66.11c0,10.18,3.88,14.93,10.52,17.65V132H151.66v-.95c6.65-2.72,10.38-7.47,10.38-17.79V53.71c0-9-1.25-13-7.89-15.75V37h20.49L220.2,109.2V55.44c0-10.18-3.88-14.93-10.52-17.51V37h24.78v.25c-6.65,2.73-10.52,8-10.52,18.48ZM305.22,36l3.41,27.84h-1c-8.13-16.29-11.87-23.9-28-23.9H273v76.41c0,9,2,12.63,8.84,15.34V132H251.77v-.28c6.82-2.71,8.83-6.38,8.83-15.34V40H240.29c-16.1,0-16.35,12.71-16.35,23.9l-2.35.29L223,39.21c1.57.81,9.72-2.23,12.14-2.23C303.31,37,302.61,37.38,305.22,36Z" />
	<path class="cls-2" d="M60.45,100.65c1.38,0,3.13-.33,3.44,1.38s-.06,2.63-2,2.52C55.49,104.18,58,100.71,60.45,100.65Z" />
	<path class="cls-3" d="M155.1,23.32c-13.86-7.29-42.64-9.5-44.32-9.62-1.66.12-29.07,2.15-40.7,4.23C.92,30.22,10.38,101.74,65.46,96.42c30.44-2.92,35.78-34.33,35.83-34.65l2.14.35c-.05.33-5.62,33.32-37.73,36.44C36.5,101.42,13.94,81.8,20.15,54.14c6.39-28.5,39.54-36.52,49.55-38.29,11.12-2,40.23-4.26,41.18-4.26,1.24.09,30.64,2.19,45.24,9.87" />
	<path class="cls-4" d="M97.57,77.08s-4.5,6.6-2.83,13.25A68.56,68.56,0,0,0,99.88,104c.93,1.92-4.22,1.54-5.18-2.78s-3.41-7-2.32-11S94.1,80.46,97.57,77.08Z" />
	<path class="cls-5" d="M60.72,109c-.9-1.11-.94-1.45,2.62-3.4s4.69-1.07,7.36-4.13,5.59-6.18,8-7.42,5.38-6,3.26-1.69.26,2.6-5.58,8.36-4.11,5.28-8.1,7.72A8.69,8.69,0,0,1,60.72,109Z" />
	<path class="cls-6" d="M49.6,78.22c.19-1-2-3.43-2.21-.78S47,85.67,52,88.85C60.06,94,67.46,97.5,76.15,95c-8,1-16.2-3.41-22-9C52.23,83.91,49.25,80,49.6,78.22Z" />
	<path class="cls-7" d="M99.86,66.86c-2.59,3.09-3.69,4.31-6.33,5.47A26.52,26.52,0,0,0,87.9,76c-1.65,1.19-.14,2.35,2.6.91s8.88-4.7,9.9-7.85S99.86,66.86,99.86,66.86Z" />
	<path class="cls-8" d="M25.27,20.87C24.14,20,14.51,46.74,17.5,51.7c1,1.57,1.08,8.32,2.36,5.48s-2.13-4,.13-7.84C24.41,41.92,26.78,22,25.27,20.87Z" />
	<path class="cls-9" d="M63.38,0c-.55-.57-14.67,9.8-18,16.13C43.07,20.62,39.32,24.69,39,27s1.6,3,.8,1.52-.15-2.81,4-5.47c2-1.29,2.07-.67,6.55-4.58C54.61,14.71,64.49,1.16,63.38,0Z" />
	<path class="cls-10" d="M62.47,29.6c.39-1.12-7.35-3.1-11.76-3s-8.85.49-10.87,1.94-1.34.92,1.21.53,2.53-.58,5.83.58S62.19,30.39,62.47,29.6Z" />
	<path class="cls-11" d="M64.81,17.05c2.93-3.79,3.59-4.84,7.12-7.65,4-3.2,15-9,15.68-8.19s-9,8.58-12.06,11-7.86,5.21-10,4.8S64.81,17.05,64.81,17.05Z" />
	<path class="cls-12" d="M93.3,9.49c1.36,1.25-.71,2.31,2.24,6.84,3.65,5.56,23.5,27.14,4.81.67-2.27-3.22-3.7-5.58-6.06-6.92S92.17,8.46,93.3,9.49Z" />
	<path class="cls-13" d="M84.23,10.72c-.54-1.17,1.11-4,3.48-3.83s4.37.93,3.66,3.23A2.62,2.62,0,0,1,88.7,12C86.55,11.92,85,12.37,84.23,10.72Z" />
	<path class="cls-14" d="M121.74,12.68c2.07-.78,4.15-2.26,6.84-3.76,4.82-2.7,18.83-2.9,19-2.24.32,1.23-13.25,4.94-17.55,5.52s-7,.73-6.16,1.55C125.06,14.87,119.72,13.47,121.74,12.68Z" />
	<path class="cls-15" d="M143.13,15.35c6.13,5,9.85,4.48,13,6.08,4.93,2.53,14.08,8.23,13.55,9.34-.31.64-16-2.93-19.32-7.69-1.51-2.16-6.41-5.82-6.41-5.82" />
	<path class="cls-16" d="M12.05,50.62c-1.86,0-2.12,24.85,7.59,30.43,3,1.7,5.65,3.24,6.81,3.32s-.13-.61-2.74-2.27S20,77.75,18.85,72.41,13.9,50.63,12.05,50.62Z" />
	<path class="cls-17" d="M26.81,92C18.58,92.26-.52,81.35,0,79.83s20.78,5.27,26.18,7.65c5.82,2.59,11.18,5.2,11.18,5.2A45.16,45.16,0,0,0,26.81,92Z" />
	<path class="cls-18" d="M24.94,82a41.09,41.09,0,0,0-1.21-8.83c-1.22-4.91,1.07-15.27,2.66-14.7.74.26.42,12.89.21,15.27A68.48,68.48,0,0,1,24.94,82Z" />
</svg>
