<svg width="923" height="157" viewBox="0 0 923 157" fill="none" xmlns="http://www.w3.org/2000/svg">
<path d="M526.558 149.462H482.017V147.991C493.648 143.586 500.446 135.146 507.535 120.831L567.958 0.00880465H570.116L633.205 125.888C640.294 139.78 643.412 143.568 654.785 147.991V149.462H598.677V147.991C607.18 145.462 611.15 142.934 611.15 137.886C611.15 134.512 609.737 130.301 607.18 125.253L594.135 99.7851H526.558L516.35 120.205C514.031 124.3 512.779 128.742 512.671 133.252C512.671 140.406 517.483 145.039 526.558 147.991V149.462ZM529.115 94.517H591.221L559.747 32.8506L529.115 94.517ZM667.819 77.8935C667.819 117.677 686.637 143.965 717.312 143.965C737.943 143.965 753.674 132.38 753.674 111.969V106.102C753.674 92.2089 751.095 85.0468 739.227 80.6245V80.2104H787.447V80.6245C777.39 84.8354 775.578 92.2089 775.578 106.102V151.567H775.06L755.735 126.716C751.095 139.983 735.105 151.558 712.673 151.558C671.941 151.558 642.031 120.197 642.031 77.6733C642.031 31.9961 676.321 0 717.56 0C733.81 0 744.632 6.73925 752.628 6.73925C759.587 6.73925 764.496 3.1538 767.323 0L769.384 48.2055H768.866C760.364 24.2085 741.794 4.83641 718.596 4.83641C686.378 4.84522 667.819 34.5332 667.819 77.8935ZM896.198 2.1319C900.805 2.1319 905.909 1.92047 908.919 0.660712L916.774 36.6563H914.94C901.409 16.6587 888.084 7.17973 857.753 7.17973H830.692V72.0176H851.808C873.733 72.0176 879.215 68.2295 888.418 48.6548H890.242V97.063H888.418C879.215 77.6821 873.733 76.854 851.808 76.854H830.692V144.423H861.552C891.871 144.423 907.365 134.116 921.166 111.167H923L915.695 149.479H791.687V148.008C804.635 143.797 807.117 137.481 807.117 123.588V28.0494C807.117 14.1568 804.678 6.79211 791.687 2.58117V2.15832L896.198 2.1319ZM135.899 18.359C135.899 11.1969 131.022 6.36045 122.638 3.62069V2.11427H164.87L163.629 4.3607C153.842 2.85427 143.236 25.3273 140.776 30.5337L83.9238 151.567H81.7658L20.5763 25.6885C13.5413 11.7959 10.8654 8.00783 0 3.58546V2.11427H53.6581V3.58546C45.5334 6.11379 41.7893 8.43068 41.7893 13.4785C41.7893 16.8437 43.1488 21.0547 45.8463 26.3228L91.3257 118.514L132.424 31.1592C134.269 26.9482 135.899 22.7637 135.899 18.359ZM216.024 148.026V149.497H161.611V148.026C174.559 143.815 177.041 137.499 177.041 123.606V28.0494C177.041 14.1568 173.89 4.67784 161.611 3.62951V2.11427H216.024V3.58546C203.077 7.7964 200.595 14.1568 200.595 28.0054V123.571C200.595 137.463 203.033 143.78 216.024 147.991V148.026ZM361.58 31.1944V156.615H358.214L251.394 18.1123V120.62C251.394 136.406 258.763 143.78 271.377 147.991V149.462H224.311V147.991C236.935 143.78 244.035 136.406 244.035 120.408V28.0494C244.035 14.1568 241.661 7.84044 229.048 3.62951V2.11427H267.967L354.48 114.092V30.7363C354.48 14.9497 347.111 7.58497 334.498 3.58546V2.11427H381.563V2.50189C368.939 6.73926 361.58 14.9497 361.58 31.1592V31.1944ZM503.23 2.12308C507.837 2.12308 512.941 1.91166 515.951 0.6519L522.425 43.8184H520.602C505.172 18.5616 498.062 6.76568 467.472 6.76568H454.772V125.253C454.772 139.146 458.56 144.828 471.562 149.039V149.462H414.44V149.039C427.388 144.828 431.218 139.146 431.218 125.253V6.73925H392.644C362.055 6.73925 361.58 26.4461 361.58 43.792L357.124 44.2501L359.714 5.5764C362.692 6.83616 378.164 2.11427 382.772 2.11427L503.23 2.12308Z" fill="#D8F0F0"/>
</svg>
