<svg id="Layer_1" data-name="Layer 1" xmlns="http://www.w3.org/2000/svg" xmlns:xlink="http://www.w3.org/1999/xlink" viewBox="0 0 1082.74 582.73"><defs><style>.cls-1{fill:url(#linear-gradient);}.cls-2{fill:url(#linear-gradient-2);}.cls-3{fill:url(#linear-gradient-3);}.cls-4{fill:url(#linear-gradient-4);}.cls-5{fill:url(#linear-gradient-5);}.cls-6{fill:url(#linear-gradient-6);}.cls-7{fill:url(#linear-gradient-7);}.cls-8{fill:url(#linear-gradient-8);}.cls-9{fill:url(#linear-gradient-9);}.cls-10{fill:url(#linear-gradient-10);}.cls-11{fill:url(#linear-gradient-11);}.cls-12{fill:url(#linear-gradient-12);}.cls-13{fill:url(#linear-gradient-13);}.cls-14{fill:url(#linear-gradient-14);}.cls-15{fill:url(#linear-gradient-15);}.cls-16{fill:url(#linear-gradient-16);}.cls-17{fill:url(#linear-gradient-17);}</style><linearGradient id="linear-gradient" x1="134.8" y1="563.9" x2="172.36" y2="559.77" gradientTransform="matrix(1, 0, 0, -1, 0, 687.3)" gradientUnits="userSpaceOnUse"><stop offset="0" stop-color="#81a38e"/><stop offset="0.93" stop-color="#51876f"/></linearGradient><linearGradient id="linear-gradient-2" x1="6.83" y1="175.23" x2="246.92" y2="259.07" gradientTransform="matrix(1, 0, 0, -1, 0, 687.3)" gradientUnits="userSpaceOnUse"><stop offset="0" stop-color="#81a38e"/><stop offset="0.31" stop-color="#6d9781"/><stop offset="0.72" stop-color="#588b74"/><stop offset="1" stop-color="#51876f"/></linearGradient><linearGradient id="linear-gradient-3" x1="28.23" y1="463.75" x2="36.04" y2="462.89" gradientTransform="matrix(1, 0, 0, -1, 0, 687.3)" gradientUnits="userSpaceOnUse"><stop offset="0" stop-color="#51876f"/><stop offset="1" stop-color="#81a38e"/></linearGradient><linearGradient id="linear-gradient-4" x1="43.23" y1="463.12" x2="52.75" y2="462.08" xlink:href="#linear-gradient-3"/><linearGradient id="linear-gradient-5" x1="60.31" y1="462.7" x2="70.01" y2="461.64" xlink:href="#linear-gradient-3"/><linearGradient id="linear-gradient-6" x1="41.9" y1="453.07" x2="49.66" y2="452.22" xlink:href="#linear-gradient-3"/><linearGradient id="linear-gradient-7" x1="56.79" y1="450.98" x2="63.29" y2="450.26" xlink:href="#linear-gradient-3"/><linearGradient id="linear-gradient-8" x1="126.25" y1="461.15" x2="1138.46" y2="302.77" gradientTransform="matrix(1, 0, 0, -1, 0, 687.3)" gradientUnits="userSpaceOnUse"><stop offset="0" stop-color="#81a38e"/><stop offset="1" stop-color="#51876f"/></linearGradient><linearGradient id="linear-gradient-9" x1="13.43" y1="467.87" x2="16.54" y2="495.98" xlink:href="#linear-gradient-8"/><linearGradient id="linear-gradient-10" x1="131.56" y1="434.98" x2="134.45" y2="461.2" xlink:href="#linear-gradient-8"/><linearGradient id="linear-gradient-11" x1="173.47" y1="415.83" x2="177.96" y2="456.42" xlink:href="#linear-gradient-8"/><linearGradient id="linear-gradient-12" x1="162.87" y1="485.73" x2="164.53" y2="500.78" xlink:href="#linear-gradient-3"/><linearGradient id="linear-gradient-13" x1="182.76" y1="479.9" x2="183.76" y2="488.98" xlink:href="#linear-gradient-3"/><linearGradient id="linear-gradient-14" x1="189.79" y1="459.52" x2="191.24" y2="472.58" xlink:href="#linear-gradient-3"/><linearGradient id="linear-gradient-15" x1="192.53" y1="304.9" x2="206.31" y2="429.52" gradientTransform="matrix(1, 0, 0, -1, 0, 687.3)" gradientUnits="userSpaceOnUse"><stop offset="0" stop-color="#51876f"/><stop offset="0.27" stop-color="#568a72"/><stop offset="0.61" stop-color="#66937c"/><stop offset="0.98" stop-color="#7fa28d"/><stop offset="1" stop-color="#81a38e"/></linearGradient><linearGradient id="linear-gradient-16" x1="223.16" y1="497.41" x2="227.39" y2="535.63" xlink:href="#linear-gradient-8"/><linearGradient id="linear-gradient-17" x1="371.2" y1="284.77" x2="438.29" y2="277.4" gradientTransform="matrix(1, 0, 0, -1, 0, 687.3)" gradientUnits="userSpaceOnUse"><stop offset="0" stop-color="#81a38e"/><stop offset="0.14" stop-color="#749c86"/><stop offset="0.42" stop-color="#619079"/><stop offset="0.71" stop-color="#558972"/><stop offset="1" stop-color="#51876f"/></linearGradient></defs><path class="cls-1" d="M135.87,138.48c-.29.1-.37-.27-.5-.63a56.21,56.21,0,0,0,5.45-18.34s1.68-11.36,8.34-12.34c0,0,10.24-3,14.19,14.44a22.75,22.75,0,0,0,.5-4.75,56.18,56.18,0,0,1,1.66,9.38l1.08-3.07a25.71,25.71,0,0,1,.75,7.55,2.67,2.67,0,0,0,1.33,3s5.29,4.35,4.15,8.79c-.18,1.38-2.7.67-6.39,2.5-.28.1-.24.1-.41-.39a14.54,14.54,0,0,0,.77-2.43c.22-.88-.59-1.68-1.48-1.91-.24.09-.24.09-.56-.07a92.3,92.3,0,0,1-11.64,1.37c-.24.08-.64-.31-.49-.64l-.08-.24a18.32,18.32,0,0,0,.66-4.27A2.24,2.24,0,0,0,151,134a1.52,1.52,0,0,0-1,.09A32.2,32.2,0,0,1,135.87,138.48Z"/><path class="cls-2" d="M241.82,434.21c-.46,1.77,0,.84-4.54,8.59a124.18,124.18,0,0,0-5.83-25.18c.09.24-.15.33-.07.57a5.05,5.05,0,0,1-.46,1.77c-1.94,2-4.08,1.4-4.75-.49a70,70,0,0,1-5.63-16.9c-.45,1.78-.83,3.8-1.28,5.57-.72,5.64-3.2,17.82-17.67,23.41,0,0-13.93,4.06-21.35,2.07a6.74,6.74,0,0,0,4.15,3.4s-14.52,2.38-21.63-.26c1.31,2.22,3.81,3.1,2.79,4.14a.48.48,0,0,1-.72.26c-30.3,4.12-47.36,2.32-51.8,2.73-8.28.19-30.78.51-39.74-2a13.08,13.08,0,0,0-8.91.69,49.28,49.28,0,0,1,5.17,1.69,16.78,16.78,0,0,1-6.94,4,4.48,4.48,0,0,0,1.79,1.26c.56.08.81.8.74,1.36-1.35,2.8-5.49,5.9-10.2,6.26a15.52,15.52,0,0,0-6.39,2.5,16.63,16.63,0,0,1,5.31.57S16.68,474,9.25,488.21c-1.8,3.32-3.6,6.64-5.32,10.21a5.61,5.61,0,0,0,2.84,7.36c1.41.68,3.48.55,5,.41a2.83,2.83,0,0,0,2.31-1.88c.92-2.75,3-8.33,5-9.56,0,0-2.39,7-3.3,10.58-.15,1.13.27,2.33,1.4,2.47a18.52,18.52,0,0,0,8.54,1.33,3.28,3.28,0,0,0,2.62-2.53c.36-2.82,1.25-8,3-9.13,0,0-1,5.73-1.48,8.87a3.16,3.16,0,0,0,1.89,3.11,20.48,20.48,0,0,0,7.19,2.07A3.61,3.61,0,0,0,42.35,509c.75-3.23,2.45-8.4,5.5-8.92a21.39,21.39,0,0,0-3.58,8.25c-.82,6.36,9.26,7.14,15.11,5.5C85.63,498.73,80.55,495.27,90,488.29a16.11,16.11,0,0,0,3.88-3.52,7.68,7.68,0,0,1,10.5-2.31s10.34,3.39,16.47,4.75c.32.16.73.56.57.88s-.15.32-.39.41a61.6,61.6,0,0,1-6.57,2s20.43.68,24.5-1.55a43.69,43.69,0,0,1-6.27,6c16.81-4,21.36-7.19,34.27-9.81,23.39-4.49,27.47-2.62,51.72,2.42,11.19-5.17,26-14.84,33.64-24.68a30.24,30.24,0,0,0,3.37-5.76c.79-1.62,1-2.51.76-3.23C255.17,451.64,249.56,447.13,241.82,434.21Z"/><path class="cls-3" d="M16.76,217.52a51.48,51.48,0,0,0,6.18,10.77c.08.24.32.16.56.08a.26.26,0,0,0,.16-.33,55.56,55.56,0,0,1-.45-9c-.09-.24-.09-.24-.17-.48A16.47,16.47,0,0,1,17.39,217c-.08-.24-.32-.16-.56-.07S16.67,217.28,16.76,217.52Z"/><path class="cls-4" d="M31.74,219.56c3.14.52,6.2.8,9.26,1.08l.08.24a57.33,57.33,0,0,0-.79,6.21l-.24.08a22,22,0,0,1-8.47-7.28A.26.26,0,0,1,31.74,219.56Z"/><path class="cls-5" d="M48.56,221.5s7.41.38,9.58.43a.25.25,0,1,1,.16.48,16.49,16.49,0,0,0-2.91,4l-.24.09C54.09,225.77,49.48,223.34,48.56,221.5Z"/><path class="cls-6" d="M32,237.26a51.58,51.58,0,0,1-1.41-8.67c2.13,3,4.59,6.21,6.88,8.91C33.32,237,32.28,238.08,32,237.26Z"/><path class="cls-7" d="M44.47,238.29c.53-2.34,1.29-4.77,1.91-6.87l.24-.08A25,25,0,0,1,50.91,239a.26.26,0,0,1-.16.33,37.94,37.94,0,0,1-6.12-.56Z"/><path class="cls-8" d="M981.87,82a1,1,0,0,0-.64.5,104,104,0,0,1-12.85,17.15c1.73-2.76,30-57.37,20.31-85.22A21.22,21.22,0,0,0,974.25.11a3.17,3.17,0,0,0-3.82,2.14l.08.24C961.26,40.75,925.62,89,917.34,100l-.48.16c-.08-.24-.08-.24-.17-.48a62.49,62.49,0,0,0,3.68-12.6c.15-.32-.25-.72-.58-.87s-.48.17-.72.25c-21.23,37.86-67.54,70.2-76.86,76.68-.24.08-.24.08-.56-.07-.34-1,4.33-7,7.12-18.92a.54.54,0,1,0-1-.47c-24.5,34.68-49.29,43.07-60.33,46.93C734.68,209,661.13,203.47,647.53,202.29a1.31,1.31,0,0,1-.81-.79c-.09-.24.15-.33.31-.65,1.2-1,5.75-5.21,4.42-5.85-.09-.24-.33-.16-.57-.08-9.37,2.47-29.12,3.71-35.14,4.19-.24.09-.57-.07-.41-.39a.25.25,0,0,1,.15-.33,32.61,32.61,0,0,0,6.5-6.84c.24-.09.15-.33.07-.57-.18-.51-.44.16-5,1.76-25.43,8.88-49.27,6.16-72.3,14.2-31.19,10.89-17.85,15.94-65.25,34.37-.24.09-.57-.07-.89-.23-.09-.24-.17-.48.07-.56a30.41,30.41,0,0,0,3.55-4.47,1,1,0,0,0,0-.81c-.28-.82-.64,1.44-39.32,10-29,5.55-84.21-25.29-84.53-25.44-13.92-6.73-31.15-8.26-40.07-8.37a1.78,1.78,0,0,1-1.09-3.13,40.08,40.08,0,0,0,6.55-8.21c.24-.08.16-.32-.16-.48l-.33-.16c-7.51,3.16-29.28,4-37.64,4-.24.08-.32-.16-.41-.4a.25.25,0,0,1,.16-.32,21.77,21.77,0,0,0,7.73-4.86c.15-.32.31-.65-.1-1a.25.25,0,0,0-.32-.16c-23.09.33-45-11.73-58.28-38.92-2.29,2.69-11.14,19-11.14,19,5-14.65,11.08-22.73,18.28-30.9,7.2-7.91.67-9.67.67-9.67-3.88-1.07-25,16.28-25,16.28A63.28,63.28,0,0,1,230,140.63c2-1.28,14.49-13.27,17.29-5.23a.25.25,0,1,0,.48-.17,8.94,8.94,0,0,0-3-7.84c-7.55-5.44-22.18,5.86-22.18,5.86-19.6,17.08-48.25,20.62-56.68,21.14-.24.08-.41-.4-.17-.48,7.46-1,20.36-4.14,20.36-4.14-4.66-4.53-12.56-5.59-18.94-3.36a70.57,70.57,0,0,1-7,1.63l-.09-.24a16,16,0,0,0,3.85-6.73l-.09-.24-.24.08c-2.95,1.57-12.75,2-15.16,2.06a.25.25,0,0,1-.32-.16c1-2.16,4.23-6.74,3.11-7.28a90.47,90.47,0,0,1-14.09,4.38c-3.66,2.63-46,.72-46,.72-17.7-1.36-28.6,22.92-28.6,22.92a15.94,15.94,0,0,1-7.12,8.15c-5.25,3.45-25.23,6.38-34.21,7.63a36.79,36.79,0,0,1-7.32-.14,13.33,13.33,0,0,0-12.45,6c-5.1,8.51,5.7,21.72,5.7,21.72,4.19,6.61,7.1,7.22,7.1,7.22,8.26,4.39,28.77,5.31,38.82,5.57,12,0,27.15,4.5,27.52,7.9,2.51,6.4-10.3,9.8-10.3,9.8a44.5,44.5,0,0,1-21.5,3.19c-9.57-.66-12.15-2.7-15.54-2.11A2.77,2.77,0,0,0,31,241.37c.16.48.25.72.42,1.2,7.72,11.32,21.77,10.72,29.55,9.08a102.05,102.05,0,0,1,46.73,2c6,2,18.51,4.87,24.14,2.08a11.73,11.73,0,0,1,8.43-.52,41.51,41.51,0,0,0,13.87,2.7c-1.63,3.81-7,3.24-11.06,2.25-5.94-1.89-7.71,2.71-18.16.41-.32-.15-.72.25-.64.49l.17.48c16.29,8.87,18.39,26.45,18.55,32.32.2.57.26.45.89.23,2.74-5.27,2.62-13.31,2.56-17.33a.25.25,0,0,1,.48-.17c3.93,18.27,1.76,18.79,3.64,18.13,3.22-5.43,4.23-18.72,4.23-18.72a21.33,21.33,0,0,1,1.26,9c.08.24.25.72.73.56a10.71,10.71,0,0,0,10.64-8.84,3.78,3.78,0,0,1,4.62-3,.26.26,0,0,1,.33.16,20.67,20.67,0,0,0,9.89.58c5.21-1.28,7.32-10.64,7.32-10.64,1.9,3.11-2,12.82-2,12.82-3,4.55-8.87,3.9-12.83,2.59a4.36,4.36,0,0,0-5.26,2.65c-3.2,7-12.24,9.66-12.24,9.66,13.9,10.51,25.33,17.83,23,33.46a17.23,17.23,0,0,0,2.19-9.92c-.09-.24.15-.32.48-.17,4.06,3.16,4.82,16.91,7.42,24.35,3.19,9.13,7.64,11.07,10.82,20.2,1.43,4.08,2.37,8.33,2.31,20.48a.86.86,0,0,0,1.14.95l1-.34c4.33-5.74,4-10.8,4.44-9.63,4.37,19.42,2.45,21,4.88,20.92,1.4-.49,3.73-4.29,3.41-8.73a.25.25,0,0,1,.48-.17c6.8,14.06.69,14.31,10,34.77a.25.25,0,0,0,.48-.17,18.3,18.3,0,0,1,1.34-7.74c.31-.66,1-.14,1.12.15a127,127,0,0,1,7.36,24.91,15.66,15.66,0,0,0,1.27-6.37c.07-.56.31-.65.79-.82a.56.56,0,0,1,.65.32,112.34,112.34,0,0,0,15.51,22.06c7.75,7.53-1.13,16-1.13,16a11.13,11.13,0,0,0-.11-7.23c-.5,3.94-15,23.29-55.8,37.53-11.52,4-19.55,4.94-29.37,9.18l1.37-5.33c-9.53,2.79-15.21,15.82-40.16,24.53-12,4.19-37.18,8.4-40.61,15.53-1.72,3.56.93,3.44-1.78,10.32-1.7,4.37-.43,3.38.07,4.82a15.24,15.24,0,0,0,3.86,5.66c.11.32.46.11.8,0a12.58,12.58,0,0,1,8.05-4.7.25.25,0,1,1,.17.48,11.45,11.45,0,0,0-5.51,13.51c1.51,4.32,7.25,6.9,8.65,3.18,3.55-9.86,10.27-12.21,12.75-12.81.28-.09.33.18.41.4-8.76,5.75-11.74,21.88-6.2,21.56,11.65-.56,5.85-7.16,35.67-18.11,11.52-4,22.79-14.15,28.78-16.25,15.12-5.28,63.16-12.62,89.79-21.92,52.07-18.18,48.61-12.66,70.12-20.44.24-.09.64-.5.56-.74s-.5-.63-.74-.55a37.66,37.66,0,0,1-6.2-.8c-.65-.31-.14-1,.15-1.12C343.78,498,344,488,344,488c-1.6,2-6.55,8.25-7.39,5.82,2.72-17.94,7.85-32.28,19.74-46.77C370.84,429,388,405,388,405c-4.51,15.58-22.44,37.47-31.06,47.48-2.06,2.37-.5,6.44,2.5,6.4,14.25,1.49,51,2.67,59.44,2.15,15.58-.86,33.83,5.16,40.05,7.57a1.14,1.14,0,0,0,1.2-.42,1.54,1.54,0,0,0-.09-1.05c-3-4.06-11.14-8.77-12.93-10l-.08-.24c17,.81,60.14,6.48,60.14,6.48-4.79-2.91-20.35-6.64-24.38-7.38-.24.08-.33-.16-.17-.48,9.69-3.36,31.84-3,42.16-2.6.57.07.72-.25.79-.82a.88.88,0,0,0-.49-.63,38.26,38.26,0,0,0-13-4.09c-.32-.15-.65-.31-.57-.87-.33-.94,4,.18,36.48-17.32,18.83-10.08,26.8-8.82,41.12-19.48a.25.25,0,0,0-.17-.48,12.57,12.57,0,0,1-6.51-.15c-.89-.23-1.47-1.1-1.16-1.75-.08-.24.16-.33.32-.65,14.83-19.19,29.88-29.29,43.55-34.07,19.92-6.95,36-2.59,41.48.07,18.78,9.07,13.26,21.77,23.84,42.05.3.88,2,.45,1.68-.58a45,45,0,0,1,.19-8.69c.16-.33.32-.65.64-.49.24-.09.32.15.65.31,4,8.31,12.62,22.26,12.62,22.26a26,26,0,0,0-1.5-8.9,1.36,1.36,0,0,1,.78-1.62c.48-.17,1.05-.1,1.21.38,23.17,28.56,45.15,26,58.06,51.39a.56.56,0,0,0,.65.32c.24-.09.39-.41.55-.73a20.84,20.84,0,0,0-3.68-9.77,1.28,1.28,0,0,1,.15-1.12c.24-.09.72-.26.8,0,9.48,5.58,43,17.58,72.46,19.42l.24-.08-.08-.24a11.45,11.45,0,0,1-4.95-3.39,1.82,1.82,0,0,1,.44-2.58c.4-.41,1-.33,1.2-.42a91.52,91.52,0,0,0,21-.85c.48-.17.72-.25.79-.82a1,1,0,0,0-.81-.79,30.86,30.86,0,0,1-7.68-2.71s-.08-.24-.17-.48l.24-.08c29.12-4.51,56-25.48,65.34-28.74,19-6.62,68.81-4.91,81.83,33.92a45.85,45.85,0,0,0,7.61,14.86,50.77,50.77,0,0,1-2.21-8.66c13.36,26.65,38.67,43,57.17,45.78a1.81,1.81,0,0,0,2.14-1.56c.26-1.81-1.34-1.73-8.41-9.46,15.86,13.05,24.41,9.8,28.15,6.61.87-.58.78-1.62.2-2.5-.08-.24-.41-.39-.73-.55a73.4,73.4,0,0,1-11.33-5.47,24.78,24.78,0,0,0,13.44,1.5c2.16-.75,5-3.37,2.84-9.61s-11.74-11.26-16.84-19.71a29,29,0,0,0-11.55-9.17c-5.1-2.27-45.61-41.19-76.93-72.29-18.61-20.17-51.66-37.73-65.1-33-15.36,5.36-14.27,24.65-32.26,30.93a20.91,20.91,0,0,1-15.29-.59c-.24.08-.32-.16-.16-.48-.09-.24.15-.32.48-.17a16.17,16.17,0,0,0,15.52-4.88c.16-.32.07-.56-.17-.48l-.32-.16c-18.93,8.23-23-28.87-23-28.87-5.6-28.82-12.31-30.19-9.29-31.24a7.53,7.53,0,0,0,5.3-.24c-4.21-1.83-12.47-12.6-12.9-13.81l.24-.09a17.82,17.82,0,0,0,7.73.54c-12.82-8.19-36.92-51.77-66.2-70.1,0,0-28.12,1.19-37.2-4a16.78,16.78,0,0,1-2-2.79c21.24,6.87,51.9,3.71,71.47.38,34-5.95,66.48.76,92.81-12.48a.51.51,0,1,0-.33-1,32,32,0,0,1-16.51-2.58c-.33-.16-.33-.16-.17-.48,0,0,.16-.33.24-.09a47,47,0,0,0,29-22.52c10-19.46,37.84-23.45,41.44-24.71,11.28-3.94,9.4-11.63,10.49-13.9s4.45-3.44,7.49-10.16a33.08,33.08,0,0,0,2.6-20.31c-1.51-4.32-6.27-5.62-9.89-6a1.32,1.32,0,0,1-1.31-1.43c.16-.32.31-.65.47-1a23.5,23.5,0,0,0,8.16-8.24c1.4-2.92.4-5.8,3.14-11.06a33.13,33.13,0,0,0,3-21.52C982.84,82.51,982.43,82.12,981.87,82ZM117.49,185.31c-9.47,1.81-19.44.67-24.93-1.26a12.93,12.93,0,0,0-6.6-.39c11.11-4.87,10.41-6.1,15.25-7.21a9.7,9.7,0,0,1,6.44.71,28.45,28.45,0,0,1,10.07,7.26A1.35,1.35,0,0,1,117.49,185.31Z"/><path class="cls-9" d="M5.24,204.57c2.66,4.3,10.3,3.38,11.25-5.55,0,0,.35-3.62,6.08-1.85,0,0,5.1,2.26,8.6,0a4.56,4.56,0,0,0,1.12-6c-.08-.24-.41-.39-.49-.63-5.06-5.24-17.19-16.09-26.75-9.52C5.53,180.76-6.68,186.64,5.24,204.57Z"/><path class="cls-10" d="M124.7,239.1s22.65-6.83,11-25.41C135.75,213.69,156.74,236.8,124.7,239.1Z"/><path class="cls-11" d="M157.59,257s10.64-3.45,7.74-9.44c0,0,13.17-.82,9.57-11.15,0,0,14.08,6.4,18.07-6.85,0,0,3.83-7.53-5.62-10.7,0,0,9.49,1,8.12,11.71,0,0-5.82,14.16-18.53,7.82,0,0,3,12.43-10.23,10C166.8,248.65,171.53,259.12,157.59,257Z"/><path class="cls-12" d="M158.71,173.07s5,4.2,7.29,3.92c0,0-2.11,4-8.08,2.29a32.65,32.65,0,0,1,13.65,10.58s-2.75-7.12-6.88-8.91a10.16,10.16,0,0,0,4.85-3.85C169.46,176.86,160.83,175.29,158.71,173.07Z"/><path class="cls-13" d="M180.67,185.07a16.27,16.27,0,0,1,7,10S193.8,187.22,180.67,185.07Z"/><path class="cls-14" d="M188.3,201.54a8.42,8.42,0,0,1,5,6.6s-1.06-.71-2.76-1.73c0,0,4.69,7.25,4.8,9.1A11.24,11.24,0,0,0,188.3,201.54Z"/><path class="cls-15" d="M217.56,246s8.09,20.08-14.62,17.5c0,0,5,24.38-13.54,25.2a31.84,31.84,0,0,1-11.75-1.28s13.11,12.12,11.9,28.71a38.92,38.92,0,0,0,6.74,27s7.48,11.4,8.38,17.82c0,0,3.26-8.41,1.66-13,0,0,8.62,17.73,8.95,24.08,0,0,.26-20.83-2.79-26.5,0,0,7.53,3.83,8.63,7.76,0,0,2.11-15.55-3.13-22.08,0,0-8.79-7.43-10.21-27.68,0,0,6.67,16.79,14.05,20.95,0,0-13.12-23.7-12.14-33.21,0,0,3.2,9.93,5.41,12.4,0,0-3.39-12-2.11-17.59a48.13,48.13,0,0,1,3-12.35C216.27,273.94,227.27,256.09,217.56,246Z"/><path class="cls-16" d="M241.91,140a57.4,57.4,0,0,0-28.06,21.38,22.23,22.23,0,0,1,5.43-2.16s-9,6.64-8.05,10.08a11.39,11.39,0,0,1,4.59-4.57s-5.83,8-1,10.88c0,0,6,3.29,9.64-6.33,2.47-7.35,10.89-22.11,17.15-25.66C241.32,143.69,244.42,141,241.91,140Z"/><path class="cls-17" d="M422.42,461.13c-22.24.31-52.59-.92-63.93-1.92a3.67,3.67,0,0,1-3.35-4.22,5.11,5.11,0,0,1,.85-2.18c8.62-10,26.31-31.82,31.06-47.49,1.07-3.88,6.79-14.49,7.9-26.73.08-.68,1.15-1.32,1.52-.27.74,1.36,1.33,3,2.24,4.88a.26.26,0,0,0,.33.16c.24-.09.24-.09.15-.33,0-11.58-1.59-15.34-1.84-16.06-1.51-4.32-3.16-12.91,3.26-19.19l.24-.08.09.24c-3,11.54,4.36,29.46,5.11,31.62,4.87,13.93.39,26.54,2,32.71a12.87,12.87,0,0,0,3,5.42c.08.24.16.49-.08.57a4.13,4.13,0,0,1-5.38,0l-.24.09c2.05,2.78,7.05,9.39,7.76,14.53-6.84-6.5-7.81-7-9-6.55-3.21,1.12-4.92,15.23,6.15,19.94a28,28,0,0,1,8.68,5.59c1.11,1.43-.38,2.61-1.09,2.27a19.08,19.08,0,0,0-8.44-.29l.08.24a36.64,36.64,0,0,0,12.47,6.42.26.26,0,0,1,.33.16S422.66,461.05,422.42,461.13Z"/></svg>